<svg width="174" height="174" viewBox="0 0 174 174" fill="none" xmlns="http://www.w3.org/2000/svg">
<g id="web-page-auto-layout">
<g id="Frame 41" clip-path="url(#clip0_0_1)">
<g id="Frame 5">
<g id="Group 6973">
<g id="Group 6541">
<g id="Ellipse 22" filter="url(#filter0_d_0_1)">
<circle cx="86.6751" cy="84.6751" r="61.6751" fill="white"/>
</g>
<g id="Group 6537">
<g id="&#229;&#174;&#152;&#231;&#189;&#145;&#230;&#150;&#185;&#230;&#161;&#136;-B-&#228;&#184;&#138;&#231;&#186;&#191;&#231;&#137;&#136;-2">
<g id="1440-1200-copy-2-0">
<g id="&#229;&#175;&#188;&#232;&#136;&#170;&#230;&#160;&#143;-0">
<g id="&#230;&#156;&#128;&#231;&#187;&#136;LOGO-8">
<g id="&#229;&#136;&#134;&#231;&#187;&#132;-2-3">
<g id="&#229;&#136;&#134;&#231;&#187;&#132;-24-6">
<path id="&#229;&#144;&#136;&#229;&#185;&#182;&#229;&#189;&#162;&#231;&#138;&#182;-copy-6" fill-rule="evenodd" clip-rule="evenodd" d="M83.2445 86.4152L83.2593 86.4237L70.0948 106.492L60.6879 106.441C59.35 106.433 58.8606 105.522 59.6036 104.393L67.0591 93.0564C65.4655 92.6672 63.9091 92.0052 62.4557 91.0564C55.5435 86.5443 53.5787 77.2545 58.0671 70.3071C62.5554 63.3597 71.7974 61.3854 78.7095 65.8976C85.5453 70.3599 87.5425 79.4949 83.2445 86.4159L83.2445 86.4152ZM115.074 86.4152L115.089 86.4237L101.925 106.492L92.5177 106.441C91.1799 106.433 90.6905 105.522 91.4334 104.393L98.889 93.0565C97.2954 92.6672 95.7389 92.0052 94.2855 91.0565C87.3734 86.5443 85.4085 77.2545 89.8969 70.3071C94.3853 63.3597 103.627 61.3855 110.539 65.8976C117.375 70.3599 119.372 79.495 115.074 86.416L115.074 86.4152ZM102.412 83.3562C105.392 83.3562 107.807 80.9287 107.807 77.934C107.807 74.9395 105.392 72.5118 102.412 72.5118C99.4332 72.5118 97.0181 74.9395 97.0181 77.934C97.0181 80.9287 99.4332 83.3562 102.412 83.3562ZM70.5826 83.3562C73.5618 83.3562 75.9769 80.9287 75.9769 77.934C75.9769 74.9395 73.5618 72.5118 70.5826 72.5118C67.6034 72.5118 65.1882 74.9395 65.1882 77.934C65.1882 80.9287 67.6034 83.3562 70.5826 83.3562Z" fill="#F8C12C"/>
</g>
</g>
</g>
</g>
</g>
</g>
</g>
</g>
</g>
</g>
</g>
</g>
<defs>
<filter id="filter0_d_0_1" x="0" y="0" width="173.351" height="173.35" filterUnits="userSpaceOnUse" color-interpolation-filters="sRGB">
<feFlood flood-opacity="0" result="BackgroundImageFix"/>
<feColorMatrix in="SourceAlpha" type="matrix" values="0 0 0 0 0 0 0 0 0 0 0 0 0 0 0 0 0 0 127 0" result="hardAlpha"/>
<feOffset dy="2"/>
<feGaussianBlur stdDeviation="12.5"/>
<feComposite in2="hardAlpha" operator="out"/>
<feColorMatrix type="matrix" values="0 0 0 0 0 0 0 0 0 0 0 0 0 0 0 0 0 0 0.15 0"/>
<feBlend mode="normal" in2="BackgroundImageFix" result="effect1_dropShadow_0_1"/>
<feBlend mode="normal" in="SourceGraphic" in2="effect1_dropShadow_0_1" result="shape"/>
</filter>
<clipPath id="clip0_0_1">
<rect width="1920" height="554" fill="white" transform="translate(-347.598 -86.7588)"/>
</clipPath>
</defs>
</svg>
