<svg width="168" height="168" viewBox="0 0 168 168" fill="none" xmlns="http://www.w3.org/2000/svg">
<g id="web-page-auto-layout">
<g id="Frame 41" clip-path="url(#clip0_0_1)">
<g id="Frame 5">
<g id="Group 6973">
<g id="Group 6972">
<g id="Ellipse 19" filter="url(#filter0_d_0_1)">
<circle cx="83.7028" cy="81.7028" r="58.7028" fill="white"/>
</g>
<g id="&#229;&#174;&#152;&#231;&#189;&#145;&#230;&#150;&#185;&#230;&#161;&#136;-B-&#228;&#184;&#138;&#231;&#186;&#191;&#231;&#137;&#136;-2">
<g id="1440-1200-copy-2-0">
<g id="&#229;&#175;&#188;&#232;&#136;&#170;&#230;&#160;&#143;-0">
<g id="&#230;&#156;&#128;&#231;&#187;&#136;LOGO-8">
<g id="&#229;&#136;&#134;&#231;&#187;&#132;-2-3">
<g id="&#229;&#136;&#134;&#231;&#187;&#132;-24-6">
<path id="&#229;&#144;&#136;&#229;&#185;&#182;&#229;&#189;&#162;&#231;&#138;&#182;-copy-6" fill-rule="evenodd" clip-rule="evenodd" d="M81.4241 73.2004L81.4348 73.2065L72.0181 87.5613L65.2892 87.5248C64.3322 87.5197 63.9821 86.868 64.5136 86.0599L69.8466 77.951C68.7067 77.6725 67.5933 77.199 66.5537 76.5203C61.6094 73.2928 60.2039 66.6477 63.4145 61.6781C66.6251 56.7086 73.2359 55.2964 78.1802 58.524C83.0699 61.7159 84.4986 68.2503 81.4241 73.201L81.4241 73.2004ZM104.192 73.2004L104.203 73.2065L94.7863 87.5613L88.0574 87.5248C87.1004 87.5197 86.7503 86.868 87.2818 86.06L92.6148 77.951C91.4749 77.6726 90.3616 77.1991 89.3219 76.5204C84.3776 73.2928 82.9721 66.6477 86.1827 61.6782C89.3933 56.7086 96.0041 55.2964 100.948 58.524C105.838 61.716 107.267 68.2503 104.192 73.201L104.192 73.2004ZM95.1352 71.0123C97.2662 71.0123 98.9938 69.2759 98.9938 67.1338C98.9938 64.9917 97.2662 63.2552 95.1352 63.2552C93.0041 63.2552 91.2765 64.9917 91.2765 67.1338C91.2765 69.2759 93.0041 71.0123 95.1352 71.0123ZM72.367 71.0123C74.498 71.0123 76.2256 69.2759 76.2256 67.1338C76.2256 64.9917 74.498 63.2552 72.367 63.2552C70.2359 63.2552 68.5083 64.9917 68.5083 67.1338C68.5083 69.2759 70.2359 71.0123 72.367 71.0123Z" fill="#F8C12C"/>
<path id="&#229;&#144;&#136;&#229;&#185;&#182;&#229;&#189;&#162;&#231;&#138;&#182;-copy-2-7" fill-rule="evenodd" clip-rule="evenodd" d="M102.364 95.3751V90.7616L104.993 89.9355V106.182H102.364V105.534C101.633 105.961 100.735 106.182 99.6806 106.182C96.4781 106.182 94.7144 104.148 94.7144 100.454C94.7144 96.7609 96.4781 94.7269 99.6806 94.7269C100.735 94.7269 101.633 94.9474 102.364 95.3751ZM65.1369 94.1761V97.1501H70.3404V99.7935H65.1369V106.182H62.5078V94.1761V91.5327H71.4906V94.1761H65.1369ZM88.4977 103.646C90.4203 103.646 91.3548 102.602 91.3548 100.454C91.3548 98.3067 90.4203 97.2627 88.4977 97.2627C86.575 97.2627 85.6404 98.3067 85.6404 100.454C85.6404 102.602 86.575 103.646 88.4977 103.646ZM83.1025 100.454C83.1025 96.7609 85.0186 94.7269 88.4978 94.7269C91.9767 94.7269 93.8928 96.7609 93.8928 100.454C93.8928 104.148 91.9767 106.182 88.4978 106.182C85.0186 106.182 83.1025 104.148 83.1025 100.454ZM76.8858 103.646C78.8084 103.646 79.7429 102.602 79.7429 100.454C79.7429 98.3067 78.8084 97.2627 76.8858 97.2627C74.9631 97.2627 74.0286 98.3067 74.0286 100.454C74.0286 102.602 74.9631 103.646 76.8858 103.646ZM71.4906 100.454C71.4906 96.7609 73.4067 94.7269 76.8859 94.7269C80.3648 94.7269 82.2809 96.7609 82.2809 100.454C82.2809 104.148 80.3648 106.182 76.8859 106.182C73.4067 106.182 71.4906 104.148 71.4906 100.454ZM99.6806 103.667C101.327 103.667 102.127 102.622 102.127 100.473C102.127 98.3234 101.327 97.2786 99.6806 97.2786C98.0341 97.2786 97.2339 98.3234 97.2339 100.473C97.2339 102.622 98.0341 103.667 99.6806 103.667Z" fill="#F8C12C"/>
</g>
</g>
</g>
</g>
</g>
</g>
</g>
</g>
</g>
</g>
</g>
<defs>
<filter id="filter0_d_0_1" x="0" y="0" width="167.405" height="167.406" filterUnits="userSpaceOnUse" color-interpolation-filters="sRGB">
<feFlood flood-opacity="0" result="BackgroundImageFix"/>
<feColorMatrix in="SourceAlpha" type="matrix" values="0 0 0 0 0 0 0 0 0 0 0 0 0 0 0 0 0 0 127 0" result="hardAlpha"/>
<feOffset dy="2"/>
<feGaussianBlur stdDeviation="12.5"/>
<feComposite in2="hardAlpha" operator="out"/>
<feColorMatrix type="matrix" values="0 0 0 0 0 0 0 0 0 0 0 0 0 0 0 0 0 0 0.15 0"/>
<feBlend mode="normal" in2="BackgroundImageFix" result="effect1_dropShadow_0_1"/>
<feBlend mode="normal" in="SourceGraphic" in2="effect1_dropShadow_0_1" result="shape"/>
</filter>
<clipPath id="clip0_0_1">
<rect width="1920" height="554" fill="white" transform="translate(-1198.42 -144.718)"/>
</clipPath>
</defs>
</svg>
