<svg width="142" height="142" viewBox="0 0 142 142" fill="none" xmlns="http://www.w3.org/2000/svg">
<g id="web-page-auto-layout">
<g id="Frame 41" clip-path="url(#clip0_0_1)">
<g id="Frame 5">
<g id="Group 6973">
<g id="Group 6539">
<g id="Ellipse 19" filter="url(#filter0_d_0_1)">
<circle cx="70.8819" cy="68.8819" r="45.8819" fill="white"/>
</g>
<g id="Bee delivery">
<path id="Vector" d="M61.3866 64.1967C61.1239 62.769 60.8091 61.056 59.3513 59.8533C57.5237 58.3484 55.1634 58.6807 54.3975 58.7895C50.8971 59.2872 48.9462 62.1029 48.5581 62.6896C49.5309 58.3765 50.5041 54.0635 51.4774 49.7505L48.2925 49.8394L43.6923 71.8212C43.459 73.0416 43.5818 74.3036 44.0459 75.4559C44.2469 75.947 44.7378 77.1049 45.9036 77.9386C47.2837 78.9244 48.7973 78.8781 49.9734 78.8252C53.4884 78.6664 56.0174 76.7836 56.7856 76.1653C59.7981 73.7392 60.7372 70.6346 61.0322 69.6054C61.2956 68.6893 61.8451 66.6911 61.3866 64.1967ZM56.6528 72.0425C55.9925 73.1746 55.2588 74.3884 53.7775 75.2772C51.8853 76.4123 48.8618 76.96 47.5412 75.5875C47.3793 75.4177 47.245 75.2235 47.1435 75.0118C46.3079 73.3459 46.3695 69.2407 48.9565 65.3935C50.0276 63.796 51.7606 61.2942 54.4415 61.142C54.8692 61.117 55.9962 61.0516 56.9184 61.7625C57.1954 61.9888 57.4344 62.2581 57.6264 62.5602C59.8737 66.1728 56.8436 71.7168 56.6528 72.0425Z" fill="black"/>
<path id="Vector_2" d="M80.3233 61.7248C79.4641 59.8031 77.6145 59.1701 77.0496 58.9767C74.9681 58.2665 73.1273 58.9311 72.1398 59.287C68.9013 60.4559 67.2131 63.0312 66.5219 64.1185C65.935 65.0404 64.417 67.5084 64.4867 70.9446C64.5175 72.4576 64.5696 75.0057 66.4332 76.8841C68.5095 78.9771 71.489 78.8801 72.8896 78.8345C74.6199 78.7718 76.3136 78.3172 77.8434 77.5046V74.9315C76.8563 75.4063 75.8172 75.7641 74.7473 75.9975C73.1412 76.3452 71.8125 76.6327 70.4119 75.9975C69.716 75.6756 69.1088 75.1886 68.643 74.5786C67.1757 72.7054 67.585 70.3991 67.6694 69.9691C69.5355 70.0658 71.4066 69.9466 73.2454 69.614C76.5866 69.0074 78.0217 68.0091 78.3768 67.7525C79.0819 67.243 79.8442 66.6791 80.3233 65.6249C81.1861 63.734 80.4018 61.9012 80.3233 61.7248ZM76.4304 65.7146C75.095 67.0526 73.3327 67.2651 72.6262 67.3099L67.9372 67.4871C68.3906 66.1785 69.3444 64.1178 71.343 62.5673C72.9094 61.3521 74.0804 61.2536 74.3511 61.2374C74.7568 61.2131 76.3944 61.1109 77.1824 62.213C77.4419 62.5899 77.5809 63.0371 77.5808 63.4951C77.5881 64.5538 76.8559 65.2882 76.4304 65.7146Z" fill="black"/>
<path id="Vector_3" d="M98.7171 61.7248C97.858 59.8031 96.0091 59.1701 95.4442 58.9767C93.3627 58.2665 91.5211 58.9311 90.5336 59.287C87.2951 60.4559 85.6076 63.0312 84.9158 64.1185C84.3288 65.0404 82.8108 67.5084 82.8813 70.9446C82.9121 72.4576 82.9634 75.0057 84.8277 76.8841C86.9041 78.9771 89.8828 78.8801 91.2842 78.8345C93.0147 78.7718 94.7086 78.3171 96.2387 77.5046V74.9315C95.2514 75.4064 94.2121 75.7642 93.1419 75.9975C91.5366 76.3452 90.2071 76.6327 88.8072 75.9975C88.1112 75.6753 87.5039 75.1884 87.0376 74.5786C85.5702 72.7054 85.9804 70.3991 86.0647 69.9691C87.9308 70.0658 89.8019 69.9466 91.6407 69.614C94.9812 69.0074 96.4163 68.0091 96.7714 67.7525C97.4772 67.243 98.2388 66.6791 98.7179 65.6249C99.5807 63.734 98.7964 61.9012 98.7171 61.7248ZM94.8286 65.7146C93.4933 67.0526 91.731 67.2651 91.0237 67.3099L86.3355 67.4871C86.7881 66.1785 87.7427 64.1178 89.7412 62.5673C91.3076 61.3521 92.4786 61.2536 92.7493 61.2374C93.1543 61.2131 94.7926 61.1109 95.5806 62.213C95.8388 62.5904 95.9762 63.0376 95.9746 63.4951C95.9827 64.5538 95.2505 65.2882 94.8249 65.7146H94.8286Z" fill="black"/>
<path id="Vector_4" d="M51.3486 87.6474V82.5908H53.5497L53.5849 82.6033C54.7727 83.0246 55.5416 84.2038 55.4125 85.4065C55.3039 86.4167 54.5856 87.2901 53.5827 87.6319L53.5482 87.6437L51.3486 87.6474ZM51.7888 83.0341V87.2033H53.4763C54.3002 86.9092 54.8865 86.1902 54.9752 85.3654C55.0816 84.3758 54.4521 83.4039 53.4756 83.04L51.7888 83.0341Z" fill="black"/>
<path id="Vector_5" d="M60.4258 82.9782V82.5459H57.709V87.6443H60.4258V87.2121H58.1404V85.2249H60.2534V84.7926H58.1404V82.9782H60.4258Z" fill="black"/>
<path id="Vector_6" d="M65.9427 87.6443H63.0674V82.5459H63.5098V87.201H65.9427V87.6443Z" fill="black"/>
<path id="Vector_7" d="M68.6443 82.5459H68.1982V87.6443H68.6443V82.5459Z" fill="black"/>
<path id="Vector_8" d="M74.3784 82.5459L72.9184 86.9356L71.3013 82.5459H70.8398L72.7188 87.6443H73.1385L74.8348 82.5459H74.3784Z" fill="black"/>
<path id="Vector_9" d="M79.2998 82.9782V82.5459H76.583V87.6443H79.2998V87.2121H77.0144V85.2249H79.1274V84.7926H77.0144V82.9782H79.2998Z" fill="black"/>
<path id="Vector_10" d="M85.4558 87.6443H85.0354V86.1946C84.9449 86.0721 84.8343 85.9659 84.7082 85.8807C84.5371 85.7665 84.3425 85.6924 84.1389 85.6638H82.5981V87.5598H82.1777V82.5459H84.5461L84.5901 82.568C84.6767 82.6106 85.4382 83.0091 85.5439 83.8258C85.6172 84.4441 85.2944 85.0558 84.7456 85.4138C84.8156 85.4486 84.8833 85.4879 84.9481 85.5314C85.1366 85.6584 85.2986 85.821 85.425 86.01L85.461 86.063L85.4558 87.6443ZM82.5945 85.2425H84.122C84.7662 85.0448 85.1939 84.4632 85.1213 83.878C85.056 83.3524 84.5864 83.0488 84.4434 82.9672H82.5967L82.5945 85.2425Z" fill="black"/>
<path id="Vector_11" d="M90.8856 82.5459L89.3764 85.0271L87.7843 82.5459H87.2949L89.1746 85.4763V87.6443H89.587V85.4734L91.3683 82.5459H90.8856Z" fill="black"/>
</g>
</g>
</g>
</g>
</g>
</g>
<defs>
<filter id="filter0_d_0_1" x="0" y="0" width="141.764" height="141.764" filterUnits="userSpaceOnUse" color-interpolation-filters="sRGB">
<feFlood flood-opacity="0" result="BackgroundImageFix"/>
<feColorMatrix in="SourceAlpha" type="matrix" values="0 0 0 0 0 0 0 0 0 0 0 0 0 0 0 0 0 0 127 0" result="hardAlpha"/>
<feOffset dy="2"/>
<feGaussianBlur stdDeviation="12.5"/>
<feComposite in2="hardAlpha" operator="out"/>
<feColorMatrix type="matrix" values="0 0 0 0 0 0 0 0 0 0 0 0 0 0 0 0 0 0 0.15 0"/>
<feBlend mode="normal" in2="BackgroundImageFix" result="effect1_dropShadow_0_1"/>
<feBlend mode="normal" in="SourceGraphic" in2="effect1_dropShadow_0_1" result="shape"/>
</filter>
<clipPath id="clip0_0_1">
<rect width="1920" height="554" fill="white" transform="translate(-1337.37 -357.979)"/>
</clipPath>
</defs>
</svg>
