<svg width="87" height="46" viewBox="0 0 87 46" fill="none" xmlns="http://www.w3.org/2000/svg">
<g id="keeta">
<g id="Vector">
<path d="M64.682 0.0998597H59.6856V7.63503H55.6328V12.3528H59.6856V26.7514C59.719 29.2207 60.7322 31.3784 62.5372 32.831C63.7446 33.8024 65.0551 34.4046 66.4323 34.6194C67.033 34.7132 67.7034 34.8071 68.1706 34.8101H68.5559V29.7866C68.5559 29.7866 68.3041 29.7897 68.1918 29.7836C67.3546 29.7261 66.1927 29.4205 65.4009 28.3492L65.3736 28.3129C65.1673 28.0345 64.9338 27.7167 64.7457 26.9118C64.7396 26.8845 64.682 26.5638 64.682 26.3065V12.3528H68.5559V7.63503H64.682V0.0998597Z" fill="#050000"/>
<path d="M20.6556 29.8714C22.0754 32.9671 24.7237 34.7405 27.9241 34.7405C28.0242 34.7405 28.1273 34.7405 28.2305 34.7344C33.3117 34.5559 35.4777 31.4056 36.7791 28.6155L32.7748 26.2823C32.2439 27.3415 30.8636 29.7806 27.9666 29.7806H27.8634C26.5347 29.7533 25.3152 28.9151 24.8268 27.6925C24.7055 27.3748 24.6569 27.1024 24.6751 26.8573L24.6842 26.7484L24.7783 26.6939C25.5276 26.2702 31.5978 22.5753 32.887 21.6281C34.6192 20.3601 35.4716 18.9348 35.8235 16.7166C35.8781 16.3655 35.9054 15.9873 35.9054 15.5697C35.9054 11.215 32.3895 7.64714 28.0667 7.61688H28.0121C25.2242 7.61688 22.6972 9.05129 21.2502 11.4601C20.2036 13.1548 19.6728 15.2459 19.6728 17.6789L19.6363 23.6586C19.6363 24.7087 19.7274 26.0402 19.8153 26.7151C19.9003 27.3566 20.055 28.5519 20.6587 29.8683M24.6114 17.4822C24.6114 15.5606 25.1453 14.0747 26.113 13.294C26.4012 13.061 27.0049 12.5738 28.1395 12.5738H28.1455C29.72 12.6131 30.7666 13.8115 30.991 14.9705C31.1245 15.6605 31.079 17.001 29.2831 18.263C27.4053 19.5824 25.7278 20.6869 24.9117 21.1469L24.6114 21.3164V17.4822Z" fill="#050000"/>
<path d="M39.1999 29.8714C40.6196 32.9671 43.2679 34.7405 46.4684 34.7405C46.5685 34.7405 46.6716 34.7405 46.7747 34.7344C51.8894 34.5559 54.0675 31.3421 55.378 28.4944L51.3221 26.2702C50.7912 27.3294 49.4109 29.7806 46.5078 29.7806H46.4047C45.0759 29.7533 43.8564 28.9151 43.368 27.6925C43.2467 27.3748 43.1982 27.1024 43.2164 26.8573L43.2255 26.7484L43.3195 26.6939C44.0688 26.2702 50.136 22.5753 51.4283 21.6281C53.1604 20.3601 54.0129 18.9348 54.3648 16.7166C54.4194 16.3655 54.4467 15.9873 54.4467 15.5697C54.4467 11.215 50.9307 7.64714 46.6079 7.61688H46.5533C43.7654 7.61688 41.2385 9.05129 39.7914 11.4601C38.7449 13.1548 38.214 15.2459 38.214 17.6789L38.1776 23.6586C38.1776 24.7087 38.2686 26.0402 38.3566 26.7151C38.4415 27.3566 38.5962 28.5519 39.1999 29.8683M43.1557 17.4822C43.1557 15.5606 43.6896 14.0747 44.6573 13.294C44.9455 13.061 45.5492 12.5738 46.6837 12.5738H46.6898C48.2642 12.6131 49.3108 13.8115 49.5353 14.9705C49.6688 15.6605 49.6233 17.001 47.8274 18.263C45.9496 19.5824 44.2751 20.6869 43.456 21.1469L43.1557 21.3164V17.4822Z" fill="#050000"/>
<path d="M78.7638 7.32032C76.7981 7.32032 74.893 8.0133 73.4035 9.26916C73.3428 9.32061 73.1972 9.44771 73.1851 9.45982C71.8351 10.6794 70.9554 12.2802 70.6399 14.0808C70.6065 14.2593 70.5853 14.4681 70.5671 14.6315L75.6665 15.6907C75.7333 15.3336 75.7849 15.0643 75.7909 15.0128C76.1398 13.4332 77.1924 12.8007 77.2349 12.7765C77.7081 12.4951 78.2542 12.3438 78.8093 12.3438C78.9731 12.3438 79.14 12.3559 79.3038 12.3831C80.7994 12.6312 81.8459 13.8538 81.8459 15.3578V16.5047L81.6912 16.5471C81.6761 16.5501 80.0774 16.9799 79.1218 17.2764L79.0217 17.3067C78.5424 17.458 77.4685 17.8484 77.3896 17.8817C77.0256 18.0239 76.7313 18.148 76.4613 18.269C75.2327 18.8228 74.1801 19.4401 73.3277 20.0998L73.0122 20.351C72.8029 20.5265 72.6057 20.7051 72.4267 20.8836C71.0798 22.2091 70.3638 23.7282 70.1727 25.665C69.8815 28.5852 70.8856 31.1181 73 32.7947C73.6522 33.3091 75.0265 34.226 76.9285 34.571C77.7415 34.7193 78.2876 34.7193 78.4665 34.7193H78.5393C78.782 34.7193 79.231 34.6981 79.4009 34.68C80.5992 34.5498 81.9521 34.2684 83.7146 33.1003C84.0756 32.8612 84.4124 32.5737 84.8158 32.1652C86.2628 30.6854 87 28.6155 87 26.0039V15.4153C87 10.9517 83.3021 7.32032 78.7608 7.32032M81.8459 26.4155C81.8459 27.6653 81.1361 28.7819 79.9924 29.3327L79.9348 29.3599C79.504 29.5597 79.0459 29.6626 78.5727 29.6626C78.5666 29.6626 78.4847 29.6626 78.4726 29.6626C77.4837 29.6414 76.5645 29.1905 75.9487 28.4188L75.9244 28.3885C75.712 28.1101 75.4936 27.8196 75.3086 27.0419C75.3025 27.0207 75.2479 26.712 75.2479 26.4669C75.2479 26.4518 75.2509 26.1461 75.254 26.1008C75.3086 25.205 75.7666 24.394 76.616 23.6949C76.7344 23.5981 76.8648 23.4982 76.9952 23.4044C78.0691 22.6388 79.5708 22.0184 81.4546 21.5585L81.8459 21.4586V26.4215V26.4155Z" fill="#050000"/>
<path d="M31.6797 39.9879C29.0647 39.4129 27.1475 38.5383 26.3527 38.1933C25.7035 37.9119 22.9278 36.647 19.9579 33.9174C19.2663 33.2819 18.7718 32.8279 17.9952 31.9776C17.9952 31.9776 17.4522 31.4238 16.2721 29.8502C14.9191 28.0466 13.1324 24.9932 12.0372 20.6688C12.0221 20.6143 11.8947 20.0333 11.8916 20.0272C11.8552 19.8426 11.8128 19.6732 11.7703 19.5128C15.1072 16.0992 17.6767 12.1834 19.4058 7.86199L19.5089 7.63503H13.8028L13.6996 7.86199C11.6641 12.3226 8.05415 15.9328 5.36943 18.1813L5.01754 18.4748V0H0V34.7193H5.01754V24.969L5.11765 24.9054C5.74256 24.5181 6.37658 24.0883 7.00757 23.6314L7.12587 23.5467C8.54559 27.9346 12.6136 37.8514 23.9895 43.0413C28.367 45.0385 32.0831 45.9252 37.0218 45.9948C37.9076 46.0069 38.5204 45.9948 38.7509 45.9888C40.6742 45.9192 42.2578 45.6559 43.3802 45.4168C43.1072 44.3153 42.8341 43.2138 42.5611 42.1122C42.4003 41.4646 42.2395 40.817 42.0788 40.1725C39.391 40.6385 35.7568 40.8776 31.6797 39.9788" fill="#050000"/>
<path d="M56.5853 33.2365C55.8209 33.2365 55.1323 33.5421 54.6348 34.0384C54.5741 34.0868 54.5134 34.1352 54.4558 34.1837C54.1554 34.4379 53.8703 34.68 53.8187 34.7193C53.4365 34.9977 52.9451 35.4032 52.7782 35.5243C51.8105 36.2384 50.8246 36.8527 50.4393 37.0888C51.2432 38.7138 52.0471 40.3389 52.851 41.964C54.1524 41.2225 55.1171 40.5598 55.7541 40.0908C56.2213 39.7488 56.6248 39.4371 56.8493 39.2495C57.4105 38.7865 57.6956 38.4808 58.272 38.039C58.4055 37.9361 58.5723 37.7909 58.7331 37.5911C58.8302 37.4701 58.9606 37.2855 59.0759 37.0434C59.2367 36.7014 59.3277 36.3232 59.3277 35.9237C59.3277 34.4379 58.1021 33.2334 56.5884 33.2334" fill="#050000"/>
<path d="M45.0759 39.428L46.4229 44.6724C46.975 44.512 47.5544 44.3214 48.1581 44.0974C48.8345 43.8493 49.4564 43.586 50.0328 43.3227C49.2502 41.7007 48.4645 40.0786 47.6818 38.4566C47.342 38.6049 46.9841 38.7502 46.614 38.8924C46.0831 39.0951 45.5704 39.2737 45.0759 39.428Z" fill="#050000"/>
<path d="M42.0818 40.1846C42.5156 41.9337 42.9494 43.6828 43.3832 45.4289C43.8322 45.3381 44.2963 45.2352 44.7726 45.1203C45.349 44.981 45.898 44.8297 46.4229 44.6754L45.0759 39.431C44.627 39.5672 44.1537 39.7034 43.6593 39.8275C43.1132 39.9667 42.5854 40.0847 42.0788 40.1846" fill="#FFE41F"/>
<path d="M47.6788 38.4566C48.4614 40.0786 49.2471 41.7007 50.0328 43.3227C50.4757 43.1169 50.9277 42.9081 51.3797 42.6872C51.8803 42.4451 52.3717 42.203 52.854 41.9609C52.0501 40.3359 51.2493 38.7108 50.4454 37.0858C50.0359 37.3067 49.6111 37.5246 49.1743 37.7424C48.6647 37.9966 48.1672 38.2327 47.6818 38.4536" fill="#FFE41F"/>
</g>
</g>
</svg>
