<svg width="142" height="142" viewBox="0 0 142 142" fill="none" xmlns="http://www.w3.org/2000/svg">
<g id="web-page-auto-layout">
<g id="Frame 41" clip-path="url(#clip0_0_1)">
<g id="Frame 5">
<g id="Group 6973">
<g id="Group 6971">
<g id="Ellipse 19" filter="url(#filter0_d_0_1)">
<circle cx="70.8819" cy="68.8819" r="45.8819" fill="white"/>
</g>
<path id="Vector" d="M84.9543 50.8646C70.807 50.8646 73.9062 59.8026 73.9062 59.8026C72.0123 59.2251 47.9074 51.5797 44.4638 50.5071C44.4064 50.4796 44.349 50.5071 44.3203 50.5896C44.3203 50.6171 44.3203 50.6721 44.349 50.6996C44.6934 51.0846 45.4108 51.8547 46.5299 53.0372C46.616 53.1197 46.7308 53.1747 46.8456 53.2297L47.1899 53.3398L67.1626 59.6101C67.2774 59.6376 67.3635 59.7201 67.4209 59.8301L68.5113 61.5902V61.6177H68.4826L48.9978 55.4849C48.9691 55.4849 48.9404 55.4849 48.9404 55.5124C48.9404 55.5399 48.9404 55.5399 48.9404 55.5674C49.3996 56.0624 49.8874 56.5574 50.3752 57.08C50.5187 57.2175 50.6909 57.3275 50.8631 57.3825L69.3722 63.2128C69.487 63.2403 69.5731 63.3228 69.6305 63.4053L70.7209 65.1654V65.1929H70.6922L52.9866 59.6376C52.9579 59.6376 52.9292 59.6376 52.9292 59.6651C52.9292 59.6926 52.9292 59.6926 52.9292 59.7201C53.4744 60.2701 54.0484 60.8477 54.5936 61.3977C54.651 61.4527 54.7371 61.5077 54.8519 61.5352L71.5531 66.788C71.6966 66.843 71.8401 66.9255 71.9262 67.063L72.9879 68.7681V68.7956C72.9879 68.7956 72.9879 68.7956 72.9592 68.7956L57.4058 63.9278C57.3771 63.9278 57.3197 63.9279 57.3197 63.9829C57.3197 64.0104 57.3197 64.0379 57.3484 64.0654C60.8207 67.3655 63.8912 70.0332 65.0678 70.1157L53.9336 94.097C53.9049 94.1796 53.9336 94.2896 54.0197 94.3171C54.0771 94.3446 54.1345 94.3446 54.1918 94.2896C59.2137 90.3568 62.7434 79.8512 68.0809 77.0461C75.8002 73.0034 78.7846 70.6382 80.6786 66.5955C82.9169 61.8377 85.7865 53.8623 86.2169 53.5598C89.2588 51.3046 94.7111 46.2444 97.0355 44.0717C97.0928 44.0167 97.0928 43.9067 97.0355 43.8517C96.9781 43.7967 96.892 43.7967 96.8346 43.8242C93.6206 45.8318 85.3848 50.8646 84.9543 50.8646Z" fill="#FF671D"/>
</g>
</g>
</g>
</g>
</g>
<defs>
<filter id="filter0_d_0_1" x="0" y="0" width="141.764" height="141.764" filterUnits="userSpaceOnUse" color-interpolation-filters="sRGB">
<feFlood flood-opacity="0" result="BackgroundImageFix"/>
<feColorMatrix in="SourceAlpha" type="matrix" values="0 0 0 0 0 0 0 0 0 0 0 0 0 0 0 0 0 0 127 0" result="hardAlpha"/>
<feOffset dy="2"/>
<feGaussianBlur stdDeviation="12.5"/>
<feComposite in2="hardAlpha" operator="out"/>
<feColorMatrix type="matrix" values="0 0 0 0 0 0 0 0 0 0 0 0 0 0 0 0 0 0 0.15 0"/>
<feBlend mode="normal" in2="BackgroundImageFix" result="effect1_dropShadow_0_1"/>
<feBlend mode="normal" in="SourceGraphic" in2="effect1_dropShadow_0_1" result="shape"/>
</filter>
<clipPath id="clip0_0_1">
<rect width="1920" height="554" fill="white" transform="translate(-63 -81.5566)"/>
</clipPath>
</defs>
</svg>
