<svg width="136" height="136" viewBox="0 0 136 136" fill="none" xmlns="http://www.w3.org/2000/svg">
<g id="uber-eats-logo " clip-path="url(#clip0_0_1)">
<g id="Vector">
<path d="M121.168 0H14.9298C6.81537 0 0.237305 6.59634 0.237305 14.7333V121.267C0.237305 129.404 6.81537 136 14.9298 136H121.168C129.283 136 135.861 129.404 135.861 121.267V14.7333C135.861 6.59634 129.283 0 121.168 0Z" fill="white"/>
<path d="M112.685 45.1026C109.752 45.1026 107.671 47.4043 107.671 50.9374V63.8978H103.193V41.0854H107.618V43.8711C108.163 42.9478 108.945 42.1877 109.883 41.6695C110.82 41.1514 111.878 40.894 112.948 40.9241H114.557V45.1026H112.685ZM100.099 52.4916C100.099 45.6888 95.2724 40.6014 88.7404 40.6014C87.1971 40.6119 85.6711 40.9284 84.2501 41.5325C82.8292 42.1366 81.5414 43.0165 80.4609 44.1215C79.3803 45.2266 78.5283 46.535 77.9539 47.9714C77.3795 49.4079 77.094 50.9441 77.1138 52.4916C77.1138 59.2891 82.3426 64.4302 89.1641 64.4302C91.0696 64.4663 92.9558 64.0425 94.6638 63.1945C96.3717 62.3466 97.8514 61.0994 98.9781 59.5579L95.7282 57.1702C94.9826 58.2137 93.996 59.0606 92.8529 59.6385C91.7098 60.2163 90.4441 60.5079 89.1641 60.4883C87.341 60.4797 85.5814 59.8164 84.204 58.6187C82.8267 57.421 81.9228 55.7682 81.6561 53.9597H100.11L100.099 52.4916ZM81.7526 50.3997C82.5517 46.9203 85.3243 44.5648 88.6868 44.5648C92.0493 44.5648 94.8165 46.9203 95.5673 50.3997H81.7526ZM62.9291 40.6014C61.4326 40.6027 59.9512 40.9013 58.5705 41.4801C57.1897 42.0588 55.9371 42.9062 54.8848 43.9733V32.5671H50.4069V63.8978H54.8312V61.0045C56.9746 63.1788 59.891 64.4109 62.9398 64.4302C64.5213 64.4638 66.0937 64.1806 67.5646 63.597C69.0355 63.0133 70.3754 62.1411 71.5058 61.0314C72.6361 59.9217 73.5342 58.5969 74.1473 57.1346C74.7604 55.6724 75.0762 54.1021 75.0762 52.5158C75.0762 50.9295 74.7604 49.3592 74.1473 47.8969C73.5342 46.4347 72.6361 45.1099 71.5058 44.0002C70.3754 42.8905 69.0355 42.0183 67.5646 41.4346C66.0937 40.851 64.5213 40.5677 62.9398 40.6014H62.9291ZM62.6073 60.4184C61.0465 60.4258 59.5186 59.9682 58.2176 59.1035C56.9165 58.2388 55.901 57.006 55.2997 55.5616C54.6985 54.1172 54.5387 52.5262 54.8406 50.9906C55.1425 49.4549 55.8925 48.0438 56.9954 46.9363C58.0984 45.8288 59.5045 45.0748 61.0355 44.77C62.5665 44.4651 64.1532 44.6232 65.5945 45.2241C67.0357 45.8251 68.2664 46.8418 69.1305 48.1452C69.9946 49.4487 70.4531 50.9802 70.4478 52.5454C70.4492 53.5777 70.2473 54.6002 69.8537 55.5542C69.46 56.5081 68.8824 57.3747 68.1539 58.1042C67.4254 58.8337 66.5604 59.4117 65.6086 59.8052C64.6568 60.1986 63.6368 60.3997 62.6073 60.3969V60.4184ZM33.9162 60.2033C38.2386 60.2033 41.5957 56.8798 41.5957 51.9V32.5671H46.2346V63.8978H41.6494V60.9346C40.5781 62.0449 39.2934 62.9256 37.8729 63.5237C36.4525 64.1217 34.9258 64.4246 33.3852 64.414C26.7192 64.414 21.587 59.5418 21.587 52.1528V32.5671H26.3117V51.9269C26.3117 56.9336 29.5294 60.2033 33.9162 60.2033Z" fill="#1A1A1A"/>
<path d="M21.4873 71.4848H43.4504V76.8736H27.4201V84.5257H43.0043V89.7313H27.4201V97.5127H43.4504V102.902H21.4873V71.4848ZM104.105 103.467C110.839 103.467 114.633 100.234 114.633 95.7937C114.633 92.6304 112.386 90.2701 107.684 89.2463L102.714 88.2278C99.8277 87.6889 98.9196 87.15 98.9196 86.0723C98.9196 84.6766 100.311 83.8197 102.875 83.8197C105.653 83.8197 107.711 84.5688 108.249 87.1446H114.074C113.757 82.2947 110.28 79.0938 103.229 79.0938C97.1354 79.0938 92.8578 81.6157 92.8578 86.5034C92.8578 89.8822 95.2116 92.0808 100.29 93.1532L105.846 94.4411C108.039 94.8722 108.625 95.465 108.625 96.3757C108.625 97.8253 106.97 98.736 104.293 98.736C100.929 98.736 99.0055 97.9869 98.2586 95.4111H92.401C93.2555 100.25 96.8345 103.467 104.105 103.467ZM90.7083 102.88H84.4047C80.4495 102.88 78.257 100.412 78.257 97.2971V84.9568H73.8235V79.6973H78.2785V73.096H84.136V79.6973H90.7083V84.9568H84.136V95.7937C84.136 97.0277 84.9905 97.6205 86.3286 97.6205H90.7083V102.88ZM65.451 79.7081V81.7989C63.3887 80.0507 60.7732 79.0956 58.0727 79.1045C56.4559 79.0704 54.8487 79.3603 53.3451 79.9572C51.8415 80.554 50.4718 81.4458 49.3164 82.5804C48.161 83.7149 47.243 85.0693 46.6163 86.5642C45.9896 88.0591 45.6668 89.6643 45.6668 91.2859C45.6668 92.9075 45.9896 94.5128 46.6163 96.0077C47.243 97.5026 48.161 98.857 49.3164 99.9915C50.4718 101.126 51.8415 102.018 53.3451 102.615C54.8487 103.212 56.4559 103.501 58.0727 103.467C60.7737 103.479 63.3901 102.524 65.451 100.773V102.869H71.2924V79.6973L65.451 79.7081ZM58.5563 98.3803C57.1551 98.3963 55.7808 97.9943 54.608 97.2252C53.4353 96.4561 52.517 95.3547 51.9699 94.0611C51.4228 92.7674 51.2716 91.3398 51.5356 89.9598C51.7995 88.5798 52.4666 87.3096 53.4522 86.3106C54.4377 85.3117 55.6972 84.6292 57.0705 84.3497C58.4438 84.0703 59.8689 84.2066 61.1648 84.7413C62.4607 85.276 63.5688 86.185 64.3482 87.3527C65.1277 88.5205 65.5434 89.8942 65.5424 91.2994C65.5509 92.2257 65.3762 93.1445 65.0282 94.0026C64.6803 94.8608 64.1661 95.6412 63.5154 96.2987C62.8647 96.9562 62.0904 97.4778 61.2373 97.8333C60.3843 98.1887 59.4694 98.371 58.5456 98.3695L58.5563 98.3803Z" fill="#5FB709"/>
</g>
</g>
<defs>
<clipPath id="clip0_0_1">
<rect width="136" height="136" fill="white"/>
</clipPath>
</defs>
</svg>
