<svg width="89" height="27" viewBox="0 0 89 27" fill="none" xmlns="http://www.w3.org/2000/svg" role="img" aria-label="Plific">
<path d="M17.8326 10.8329C17.8326 12.1884 17.5215 13.4328 16.8993 14.5661C16.2771 15.6771 15.3216 16.5771 14.0328 17.266C12.7439 17.9548 11.144 18.2992 9.23295 18.2992H5.69977V26.6989H0V3.29987H9.23295C11.0995 3.29987 12.6773 3.62207 13.9661 4.26649C15.2549 4.91091 16.2216 5.79976 16.866 6.93305C17.5104 8.06633 17.8326 9.36628 17.8326 10.8329ZM8.79964 13.7661C9.88848 13.7661 10.6996 13.5106 11.2329 12.9995C11.7662 12.4884 12.0328 11.7662 12.0328 10.8329C12.0328 9.89959 11.7662 9.1774 11.2329 8.66631C10.6996 8.15522 9.88848 7.89968 8.79964 7.89968H5.69977V13.7661H8.79964Z" fill="currentColor"/>
<path d="M26.4997 2.03325V26.6989H20.7999V2.03325H26.4997Z" fill="currentColor"/>
<path d="M33.4968 6.16641C32.4968 6.16641 31.6747 5.87754 31.0302 5.29978C30.408 4.69981 30.0969 3.9665 30.0969 3.09987C30.0969 2.21102 30.408 1.47772 31.0302 0.899963C31.6747 0.299988 32.4968 0 33.4968 0C34.4745 0 35.2745 0.299988 35.8967 0.899963C36.5411 1.47772 36.8633 2.21102 36.8633 3.09987C36.8633 3.9665 36.5411 4.69981 35.8967 5.29978C35.2745 5.87754 34.4745 6.16641 33.4968 6.16641ZM36.33 8.09967V26.6989H30.6303V8.09967H36.33Z" fill="currentColor"/>
<path d="M49.7935 12.8328H46.727V26.6989H41.0272V12.8328H38.9606V8.09967H41.0272V7.56636C41.0272 5.27756 41.6828 3.5443 42.9938 2.36657C44.3049 1.16662 46.227 0.566644 48.7602 0.566644C49.1824 0.566644 49.4935 0.577754 49.6935 0.599976V5.43311C48.6047 5.36645 47.8381 5.522 47.3936 5.89976C46.9492 6.27752 46.727 6.95527 46.727 7.93301V8.09967H49.7935V12.8328Z" fill="currentColor"/>
<path d="M55.3384 6.16641C54.3384 6.16641 53.5162 5.87754 52.8718 5.29978C52.2496 4.69981 51.9385 3.9665 51.9385 3.09987C51.9385 2.21102 52.2496 1.47772 52.8718 0.899963C53.5162 0.299988 54.3384 0 55.3384 0C56.3161 0 57.1161 0.299988 57.7383 0.899963C58.3827 1.47772 58.7049 2.21102 58.7049 3.09987C58.7049 3.9665 58.3827 4.69981 57.7383 5.29978C57.1161 5.87754 56.3161 6.16641 55.3384 6.16641ZM58.1716 8.09967V26.6989H52.4718V8.09967H58.1716Z" fill="currentColor"/>
<path d="M61.1688 17.3993C61.1688 15.466 61.5577 13.7772 62.3355 12.3328C63.1354 10.8884 64.2354 9.77738 65.6353 8.99963C67.0575 8.22188 68.6796 7.83301 70.5018 7.83301C72.835 7.83301 74.7794 8.4441 76.3349 9.66627C77.9126 10.8884 78.9459 12.6106 79.4348 14.8327H73.3683C72.8572 13.4106 71.8684 12.6995 70.4018 12.6995C69.3574 12.6995 68.5241 13.1106 67.9019 13.9328C67.2797 14.7327 66.9686 15.8882 66.9686 17.3993C66.9686 18.9103 67.2797 20.077 67.9019 20.8991C68.5241 21.6991 69.3574 22.0991 70.4018 22.0991C71.8684 22.0991 72.8572 21.388 73.3683 19.9658H79.4348C78.9459 22.1435 77.9126 23.8546 76.3349 25.099C74.7572 26.3434 72.8128 26.9656 70.5018 26.9656C68.6796 26.9656 67.0575 26.5767 65.6353 25.7989C64.2354 25.0212 63.1354 23.9101 62.3355 22.4657C61.5577 21.0214 61.1688 19.3325 61.1688 17.3993Z" fill="currentColor"/>
<path d="M85.1501 26.9656C84.1502 26.9656 83.328 26.6767 82.6836 26.0989C82.0614 25.499 81.7503 24.7656 81.7503 23.899C81.7503 23.0102 82.0614 22.2658 82.6836 21.6658C83.328 21.0658 84.1502 20.7658 85.1501 20.7658C86.1279 20.7658 86.9278 21.0658 87.55 21.6658C88.1945 22.2658 88.5167 23.0102 88.5167 23.899C88.5167 24.7656 88.1945 25.499 87.55 26.0989C86.9278 26.6767 86.1279 26.9656 85.1501 26.9656Z" fill="#EEC03F"/>
</svg>
