<svg width="27" height="24" viewBox="0 0 27 24" fill="none" xmlns="http://www.w3.org/2000/svg" role="img" aria-label="Plific">
<path d="M17.8326 7.53302C17.8326 8.88852 17.5215 10.1329 16.8993 11.2662C16.2771 12.3773 15.3216 13.2772 14.0328 13.9661C12.7439 14.655 11.144 14.9994 9.23295 14.9994H5.69977V23.399H0V0H9.23295C11.0995 0 12.6773 0.322209 13.9661 0.966626C15.2549 1.61104 16.2216 2.4999 16.866 3.63318C17.5104 4.76647 17.8326 6.06642 17.8326 7.53302ZM8.79964 10.4662C9.88848 10.4662 10.6996 10.2107 11.2329 9.6996C11.7662 9.18851 12.0328 8.46632 12.0328 7.53302C12.0328 6.59973 11.7662 5.87754 11.2329 5.36645C10.6996 4.85536 9.88848 4.59981 8.79964 4.59981H5.69977V10.4662H8.79964Z" fill="currentColor"/>
<path d="M23.4665 23.6657C22.4665 23.6657 21.6443 23.3768 20.9999 22.7991C20.3777 22.1991 20.0666 21.4658 20.0666 20.5992C20.0666 19.7103 20.3777 18.9659 20.9999 18.3659C21.6443 17.7659 22.4665 17.4659 23.4665 17.4659C24.4442 17.4659 25.2442 17.7659 25.8664 18.3659C26.5108 18.9659 26.833 19.7103 26.833 20.5992C26.833 21.4658 26.5108 22.1991 25.8664 22.7991C25.2442 23.3768 24.4442 23.6657 23.4665 23.6657Z" fill="#EEC03F"/>
</svg>
