<svg width="114.0494" height="114.0494" viewBox="25 23 114.0494 114.0494" fill="none" xmlns="http://www.w3.org/2000/svg">
<g id="web-page-auto-layout">
<g id="Frame 41" clip-path="url(#clip0_0_1)">
<g id="Frame 5">
<g id="Group 6973">
<g id="Group 6542">
<g id="Ellipse 23">
<circle cx="82.0247" cy="80.0247" r="57.0247" fill="#EC1C2E"/>
</g>
<g id="Group">
<path id="Vector" d="M48.4742 71.8354C47.4316 77.0384 46.3883 82.2421 45.3457 87.4457C47.1738 87.4457 49.0013 87.4457 50.8294 87.4457C51.8721 82.2651 52.9154 77.0837 53.958 71.9031C52.1305 71.8801 50.3024 71.8578 48.4742 71.8354Z" fill="white"/>
<path id="Vector_2" d="M49.8903 64.8369C49.5425 66.3958 49.1947 67.9546 48.8477 69.5135C50.6643 69.5135 52.4809 69.5135 54.2976 69.5135C54.6453 67.977 54.9931 66.4411 55.3402 64.9046C53.5236 64.8822 51.7069 64.8592 49.8903 64.8369Z" fill="white"/>
<path id="Vector_3" d="M57.1203 71.7685C56.4701 71.7685 55.8192 71.7685 55.169 71.7685C54.9782 72.8226 54.7874 73.8767 54.5973 74.9309C55.2143 74.9532 55.8307 74.9755 56.4478 74.9978C55.3598 80.5824 54.2725 86.1669 53.1846 91.7515C55.035 91.74 56.8855 91.7292 58.7353 91.7177C59.8456 86.1439 60.9559 80.5709 62.0661 74.9972C63.4342 74.9972 64.8023 74.9972 66.1703 74.9972C66.3611 73.943 66.5519 72.8889 66.7421 71.8348C65.4132 71.8294 64.0844 71.8233 62.7556 71.8179C62.7353 71.3909 62.7684 70.7651 63.0418 70.0851C63.19 69.7164 63.4065 69.1771 63.9504 68.7732C64.3084 68.5067 64.6521 68.4153 64.8253 68.3693C66.3205 67.9715 68.8571 68.7739 69.1649 68.874C69.395 67.7976 69.625 66.7211 69.8544 65.6447C69.1243 65.3483 68.0066 64.9897 66.6081 64.9045C65.7075 64.8497 63.7596 64.7563 61.646 65.8632C61.1906 66.1021 59.2975 67.1447 58.0296 69.4126C57.5188 70.3253 57.2603 71.167 57.1203 71.7685Z" fill="white"/>
<path id="Vector_4" d="M66.1716 76.3414C65.4896 77.3103 64.4158 78.836 64.2541 81.085C64.1932 81.9347 64.018 84.359 65.6337 86.1316C67.6235 88.315 70.8854 87.9246 72.0931 87.7798C75.407 87.3833 77.5166 85.3935 78.3508 84.5836C79.0531 83.9023 81.5843 81.3732 81.8163 77.6195C81.8765 76.6438 81.9625 75.2541 81.11 73.9524C79.9963 72.2514 78.0139 71.8232 76.972 71.5972C74.8847 71.1459 73.1919 71.5897 72.43 71.7988C68.7101 72.8211 66.7081 75.5789 66.1716 76.3414Z" fill="white"/>
<path id="Vector_5" d="M83.7146 76.3302C83.0326 77.2991 81.9588 78.8248 81.7971 81.0738C81.7362 81.9236 81.561 84.3478 83.1767 86.1204C85.1665 88.3038 88.4283 87.9134 89.6361 87.7686C92.95 87.3721 95.0596 85.3823 95.8938 84.5724C96.5961 83.8911 99.1272 81.362 99.3593 77.6083C99.4195 76.6326 99.5054 75.2429 98.6529 73.9412C97.5393 72.2402 95.5569 71.8119 94.5149 71.5859C92.4277 71.1347 90.7348 71.5785 89.973 71.7876C86.2531 72.8106 84.2511 75.5684 83.7146 76.3302Z" fill="white"/>
<path id="Vector_6" d="M111.556 71.835C110.711 71.6219 109.307 71.3939 107.687 71.768C105.247 72.3309 103.804 73.9155 102.573 75.2667C102.133 75.7504 100.337 77.7869 99.377 80.9858C98.9244 82.4946 98.557 83.7869 99.1078 85.2247C99.2336 85.5535 99.76 86.8681 101.126 87.546C102.454 88.205 103.762 87.8593 104.692 87.613C106.951 87.0156 108.378 85.523 109.032 84.7199C108.863 85.6171 108.696 86.5142 108.527 87.4114C110.378 87.4114 112.228 87.4114 114.078 87.4114C115.524 80.0549 116.971 72.6983 118.418 65.3418C116.545 65.3418 114.672 65.3418 112.799 65.3418C112.386 67.5062 111.971 69.6706 111.556 71.835Z" fill="white"/>
<path id="Vector_7" d="M95.3046 91.9543C94.5306 95.8791 93.7573 99.804 92.9833 103.729C92.4 102.192 91.8168 100.656 91.2336 99.12C90.1707 100.104 88.5225 101.419 86.2546 102.484C84.7417 103.194 80.2248 105.238 74.5469 104.031C72.894 103.68 68.6146 102.701 65.3961 98.783C63.367 96.3128 62.6302 93.7344 62.3345 92.2899C62.2817 92.0558 62.3108 91.8636 62.3853 91.8359C62.4631 91.8068 62.6241 91.9448 62.7384 92.1978C63.252 93.2026 64.1464 94.664 65.6403 96.0584C68.9143 99.1139 72.6944 99.6308 73.8067 99.7675C77.6349 100.236 80.5618 99.078 82.2844 98.371C84.9244 97.2885 86.8101 95.8365 87.9616 94.8047C86.7336 93.8264 85.5056 92.848 84.2776 91.8697C87.9535 91.8981 91.6287 91.9259 95.3046 91.9543Z" fill="white"/>
</g>
</g>
</g>
</g>
</g>
</g>
<defs>
<clipPath id="clip0_0_1">
<rect width="1920" height="554" fill="white" transform="translate(-170.003 -303.735)"/>
</clipPath>
</defs>
</svg>
