<svg width="40" height="40" viewBox="0 0 40 40" fill="none" xmlns="http://www.w3.org/2000/svg">
<g id="InDrive" clip-path="url(#clip0_0_1)">
<g id="Vector">
<path d="M0 20C0 14.45 0 11.67 0.77 9.44C2.18 5.38 5.38 2.18 9.44 0.77C11.67 0 14.45 0 20 0C25.55 0 28.33 0 30.56 0.77C34.63 2.18 37.82 5.37 39.23 9.44C40 11.67 40 14.45 40 20C40 25.55 40 28.33 39.23 30.56C37.82 34.63 34.63 37.82 30.56 39.23C28.33 40 25.55 40 20 40C14.45 40 11.67 40 9.44 39.23C5.37 37.82 2.18 34.63 0.77 30.56C0 28.33 0 25.55 0 20Z" fill="#A7E92F"/>
<path fill-rule="evenodd" clip-rule="evenodd" d="M12.47 9.48C12.21 9.48 11.99 9.49 11.81 9.51C11.6167 9.52333 11.4467 9.6 11.3 9.74C11.16 9.89333 11.0833 10.0667 11.07 10.26C11.05 10.4333 11.04 10.65 11.04 10.91V12.64C11.04 12.9 11.05 13.1167 11.07 13.29C11.09 13.48 11.15 13.67 11.3 13.81C11.4467 13.95 11.6167 14.0267 11.81 14.04C11.99 14.06 12.21 14.07 12.47 14.07H14.32C14.58 14.07 14.8 14.06 14.98 14.04C15.1733 14.0267 15.3467 13.95 15.5 13.81C15.6333 13.6567 15.71 13.4833 15.73 13.29C15.75 13.1167 15.7567 12.9 15.75 12.64V10.91C15.7567 10.65 15.75 10.4333 15.73 10.26C15.7 10.07 15.64 9.88 15.5 9.74C15.3467 9.6 15.1733 9.52333 14.98 9.51C14.8 9.49 14.58 9.48 14.32 9.48H12.47ZM12.47 17.37C12.2167 17.3633 12 17.37 11.82 17.39C11.63 17.42 11.45 17.47 11.3 17.62C11.16 17.7733 11.0833 17.9467 11.07 18.14C11.05 18.32 11.04 18.54 11.04 18.8V29.04C11.04 29.2933 11.05 29.51 11.07 29.69C11.09 29.88 11.15 30.06 11.3 30.21C11.4533 30.35 11.6267 30.4267 11.82 30.44C12 30.46 12.2167 30.4667 12.47 30.46H14.33C14.5833 30.4667 14.8 30.46 14.98 30.44C15.17 30.41 15.35 30.36 15.5 30.21C15.64 30.0567 15.7167 29.8833 15.73 29.69C15.75 29.51 15.7567 29.2933 15.75 29.04V18.8C15.7567 18.54 15.75 18.32 15.73 18.14C15.7 17.95 15.65 17.77 15.5 17.62C15.3467 17.4867 15.1733 17.41 14.98 17.39C14.8 17.37 14.5833 17.3633 14.33 17.37H12.47ZM20.61 9.49C20.35 9.48333 20.13 9.49 19.95 9.51C19.7567 9.52333 19.5833 9.6 19.43 9.74C19.29 9.89333 19.2133 10.0667 19.2 10.26C19.18 10.44 19.1733 10.6567 19.18 10.91V12.6C19.1733 12.86 19.18 13.08 19.2 13.26C19.2133 13.4533 19.29 13.6233 19.43 13.77C19.5833 13.91 19.7567 13.9867 19.95 14C20.13 14.02 20.35 14.03 20.61 14.03H22.64C24.39 14.03 25.87 14.64 26.91 15.69C27.95 16.73 28.56 18.21 28.56 19.98C28.56 21.74 27.95 23.23 26.91 24.27C25.87 25.31 24.39 25.92 22.64 25.92H20.6C20.3467 25.92 20.13 25.93 19.95 25.95C19.7567 25.9633 19.5833 26.04 19.43 26.18C19.29 26.3333 19.2133 26.5067 19.2 26.7C19.18 26.88 19.1733 27.0967 19.18 27.35V29.04C19.1733 29.3 19.18 29.5167 19.2 29.69C19.2133 29.8833 19.29 30.0567 19.43 30.21C19.58 30.36 19.76 30.42 19.95 30.44C20.13 30.46 20.3467 30.47 20.6 30.47H22.64C28.69 30.47 33.27 26 33.27 19.98C33.27 13.95 28.69 9.48 22.64 9.48H20.6L20.61 9.49Z" fill="#000000"/>
</g>
</g>
<defs>
<clipPath id="clip0_0_1">
<rect width="40" height="40" fill="white"/>
</clipPath>
</defs>
</svg>
