<svg width="140.4408" height="140.4408" viewBox="25 23 140.4408 140.4408" fill="none" xmlns="http://www.w3.org/2000/svg">
<g id="web-page-auto-layout">
<g id="Frame 41" clip-path="url(#clip0_0_1)">
<g id="Frame 5">
<g id="Group 6973">
<g id="Group 6960">
<g id="Ellipse 19">
<circle cx="95.2204" cy="93.2204" r="70.2204" fill="#873DEB"/>
</g>
<g id="Group 6371">
<path id="Vector" d="M140.231 97.229C118.84 93.9168 90.1976 95.7852 70.5532 101.645C70.3018 101.716 70.148 101.844 70.0782 102.098C70.0222 102.282 69.8267 103.019 69.7988 103.146C69.7289 103.429 69.8826 103.783 70.2179 103.712C93.2156 98.4039 114.341 98.0076 137.548 103.358C138.526 103.585 139.225 102.99 139.546 102.155C139.546 102.155 140.566 99.5364 140.943 98.6304C141.223 97.9792 140.915 97.3422 140.231 97.229Z" fill="white"/>
<path id="Vector_2" d="M72.2537 95.8281C72.5471 97.187 74.6987 98.7016 76.5989 98.2061C77.9822 97.8522 79.7006 94.8513 81.2515 91.4967C81.2376 91.7373 81.2376 91.9212 81.2515 92.0345C81.545 93.6482 84.3533 94.7947 85.6527 94.5117C86.3513 94.356 87.0359 93.6765 87.6786 92.6998C88.2096 93.5774 90.1096 93.9313 91.2973 93.8181C91.8981 93.7615 92.2334 93.3934 92.3872 93.0961C93.0298 91.7515 96.3132 85.5656 99.7782 79.8753C98.409 84.504 97.0677 89.5149 97.1375 90.3501C97.2353 91.4825 99.5267 91.978 100.896 91.8364C101.497 91.7798 101.776 91.5674 101.916 91.2702C102.475 90.1094 105.129 85.2684 108.133 80.5689C106.96 84.3341 105.828 88.1702 105.884 88.9204C106.024 90.5624 109.083 91.978 110.411 91.8506C111.794 91.709 113.303 89.614 114.658 87.1085C115.399 89.5856 117.97 92.0769 119.8 92.3176C125.92 93.1386 133.297 82.2816 135.071 77.5114C135.099 77.4547 135.113 77.3981 135.127 77.3273C137.754 82.0835 139.249 88.4533 136.217 90.7747C134.75 91.8929 132.598 90.3076 133.325 87.151C133.422 86.7122 133.101 86.3725 132.598 86.5423C131.718 86.8679 130.628 87.6181 129.608 88.5241C129.371 88.7364 129.259 88.9771 129.259 89.2742C129.357 93.2094 134.093 94.7523 137.684 91.5391C141.526 88.0994 142.616 80.399 137.502 71.0849C137.376 70.8585 137.167 70.7027 136.859 70.7877C136.189 70.9575 133.828 71.8635 132.752 72.6137C132.584 72.7269 132.5 72.8968 132.472 73.095C131.075 78.4739 124.075 90.7606 118.822 90.0669C117.956 89.9537 117.718 89.2459 117.844 88.156C117.97 87.3916 118.151 86.6131 118.389 85.8204C123.321 86.0894 129.063 78.4881 129.049 75.0342C129.035 72.8543 125.626 70.8301 123.391 70.8443C121.449 70.8585 117.746 76.0675 115.692 81.2766C114.225 84.5181 112.283 88.6232 111.291 88.7223C111.179 88.7364 111.095 88.609 111.067 88.3684C110.886 86.2451 114.197 76.1666 114.938 74.5105C115.119 74.0858 114.938 73.5762 114.56 73.3781C113.904 73.0525 112.884 72.6562 111.99 72.4155C111.445 72.274 110.998 72.5854 110.662 72.9817C110.173 73.5762 106.317 79.1392 103.229 84.1501C104.389 79.6063 106.038 74.6803 106.443 73.4488C106.569 73.0525 106.373 72.6986 106.066 72.5712C105.437 72.3023 104.473 71.8918 103.467 71.5662C102.936 71.3963 102.433 71.7078 102.125 72.1183C101.678 72.7128 97.403 79.3515 93.9939 85.1693C94.6924 82.6921 97.0258 75.1616 97.0397 75.1191C97.1235 74.836 97.0397 74.5388 96.8162 74.4397C96.1874 74.1424 94.9999 73.6329 93.7983 73.2648C93.2393 73.095 93.0159 73.3073 92.8622 73.8027C92.401 75.3456 87.6926 90.9871 86.2395 91.2985C86.0858 91.3268 86.03 91.2135 85.988 90.9729C85.6387 88.9912 87.944 79.5355 88.461 77.5821C88.6008 77.0726 88.5448 76.8036 88.1118 76.5771C87.469 76.2516 86.0578 75.926 85.6387 75.8552C85.2195 75.7986 85.0239 75.9826 84.8982 76.3789C84.7026 76.9593 84.479 77.6388 84.0598 78.8136C84.0598 78.8136 80.9023 75.4306 78.2756 76.1242C75.2297 76.9168 71.4433 92.0062 72.2537 95.8281ZM125.165 73.7744C126.129 76.8036 121.588 82.8479 118.948 84.1359C120.652 79.5922 123.642 75.2465 125.165 73.7744ZM80.7346 78.8986C81.545 78.6862 83.2495 80.4273 83.4032 80.6113C81.6986 85.509 77.7726 94.7098 76.8365 94.9504C76.7665 94.9646 76.7107 94.8938 76.6827 94.7806C76.2915 92.9546 79.5889 79.1958 80.7346 78.8986Z" fill="white"/>
<path id="Vector_3" d="M72.3419 75.0613C71.3779 74.764 69.6313 74.396 68.2622 74.3111C67.6194 74.2686 67.2281 74.6225 67.1723 75.217C65.817 88.7068 64.4897 109.373 58.6635 112.303C55.6316 113.832 52.9629 110.293 56.3861 104.051C56.6934 103.499 56.4419 102.919 55.7433 102.933C53.9969 102.947 52.0688 103.386 50.9231 103.81C50.5179 103.966 50.1965 104.292 50.0289 104.688C45.963 114.044 53.5777 118.56 59.2642 115.219C65.3559 111.624 68.5416 99.7336 72.803 75.9247C72.8868 75.4718 72.7192 75.1745 72.3419 75.0613Z" fill="white"/>
</g>
</g>
</g>
</g>
</g>
</g>
<defs>
<clipPath id="clip0_0_1">
<rect width="1920" height="554" fill="white" transform="translate(-937.597 -285.901)"/>
</clipPath>
</defs>
</svg>
