<svg width="88" height="88" viewBox="0 0 88 88" fill="none" xmlns="http://www.w3.org/2000/svg">
<circle id="Ellipse 25" cx="44" cy="44" r="44" fill="#FA604F"/>
<path id="Vector" d="M68.2634 43.1776C66.5911 43.2164 65.2847 42.5827 64.855 42.3691C63.75 41.8185 63.3868 41.2965 62.1216 40.1457C60.9814 39.1077 59.3003 37.5969 57.026 36.44C54.7035 35.2585 53.1924 35.1741 52.7403 35.1599C51.6133 35.1243 50.7607 35.327 50.3443 35.4294C47.0676 36.2335 44.8202 38.7511 43.9665 39.8088C43.9659 39.8258 43.9654 39.8433 43.9654 39.8603C43.0644 38.7587 40.8494 36.3486 37.6562 35.5653C37.2397 35.4628 36.3876 35.2601 35.2601 35.2958C34.808 35.31 33.2969 35.3943 30.9744 36.5759C28.7002 37.7328 27.019 39.244 25.8789 40.2815C24.6142 41.4324 24.2504 41.9544 23.1454 42.5049C22.7163 42.7191 21.4094 43.3523 19.737 43.3134C16.7111 43.2438 14.7468 41.0248 14.3721 40.585C14.5795 41.8224 15.0118 43.573 15.9918 45.47C16.614 46.6745 18.8745 50.8945 23.8883 53.0165C30.829 55.9542 37.2326 52.4101 37.9936 51.9719C41.3372 50.0476 43.1775 47.3663 44.04 45.8665C44.9332 47.3882 46.7625 49.9688 50.0068 51.8361C50.7678 52.2743 57.172 55.8178 64.1121 52.8807C69.1259 50.7586 71.3859 46.5386 72.0087 45.3341C72.9886 43.4372 73.421 41.6865 73.6283 40.4491C73.2542 40.8884 71.2899 43.1074 68.2634 43.1776Z" fill="white"/>
</svg>
