<svg width="88" height="88" viewBox="0 0 88 88" fill="none" xmlns="http://www.w3.org/2000/svg">
<g id="uber-icon" clip-path="url(#clip0_0_1)">
<path id="Vector" fill-rule="evenodd" clip-rule="evenodd" d="M6.66417 0H81.3358C83.1025 0.00242513 84.7962 0.70532 86.0454 1.95457C87.2947 3.20382 87.9976 4.89746 88 6.66417V81.3358C87.9976 83.1025 87.2947 84.7962 86.0454 86.0454C84.7962 87.2947 83.1025 87.9976 81.3358 88H6.66417C4.89746 87.9976 3.20382 87.2947 1.95457 86.0454C0.70532 84.7962 0.00242513 83.1025 0 81.3358L0 6.66417C0.00242513 4.89746 0.70532 3.20382 1.95457 1.95457C3.20382 0.70532 4.89746 0.00242513 6.66417 0Z" fill="black"/>
<path id="Vector_2" d="M17.2338 48.5009C17.4792 49.1498 17.8534 49.7422 18.3338 50.2426C18.7739 50.7123 19.308 51.0839 19.9013 51.3334C20.5415 51.5937 21.2269 51.7245 21.9179 51.7184C22.5938 51.7286 23.2645 51.5986 23.8876 51.3367C24.5108 51.0748 25.073 50.6867 25.5388 50.1968C25.9977 49.7006 26.353 49.1178 26.5838 48.4826C26.8489 47.7672 26.9794 47.0089 26.9688 46.2459V33.4951H30.0671V54.1476H27.0238V52.2501C26.3401 52.9728 25.5126 53.5442 24.5946 53.9276C23.6367 54.3279 22.6078 54.5306 21.5696 54.5234C20.5152 54.532 19.4692 54.3359 18.4896 53.9459C17.5533 53.5584 16.7074 52.981 16.0054 52.2501C15.2925 51.518 14.7317 50.6519 14.3554 49.7018C13.9448 48.6569 13.7394 47.5427 13.7504 46.4201V33.4951H16.8488V46.2459C16.839 47.0148 16.9694 47.7789 17.2338 48.5009ZM70.5838 42.7901C69.9299 43.573 69.6018 44.5772 69.6671 45.5951V54.1476H66.6696V39.1051H69.6671V40.9384C70.0242 40.3414 70.5253 39.8435 71.1246 39.4901C71.7744 39.1205 72.5132 38.9366 73.2604 38.9584H74.2504V41.7084H73.0129C72.5535 41.6997 72.0978 41.7921 71.678 41.979C71.2582 42.1659 70.8846 42.4428 70.5838 42.7901ZM50.3438 43.6151C50.7267 42.6913 51.2767 41.846 51.9663 41.1218C52.6668 40.3954 53.5051 39.8157 54.4321 39.4168C56.3756 38.6161 58.5569 38.6161 60.5004 39.4168C61.4031 39.7919 62.2178 40.3507 62.8929 41.0576C63.5731 41.7715 64.1057 42.6126 64.4604 43.5326C64.8372 44.525 65.0268 45.5786 65.0196 46.6401V47.6209H52.7729C52.8672 48.2177 53.0691 48.7923 53.3688 49.3168C53.6573 49.8271 54.0291 50.2857 54.4688 50.6734C54.9164 51.0591 55.4243 51.3687 55.9721 51.5901C56.5437 51.804 57.1493 51.9127 57.7596 51.9109C58.6084 51.9285 59.4484 51.736 60.2048 51.3506C60.9612 50.9652 61.6107 50.3988 62.0954 49.7018L64.2496 51.2968C63.5006 52.3085 62.519 53.125 61.3877 53.677C60.2564 54.2291 59.0088 54.5006 57.7504 54.4684C56.6743 54.4775 55.6067 54.2783 54.6063 53.8818C53.6697 53.5008 52.8175 52.9387 52.0986 52.2277C51.3798 51.5167 50.8083 50.6708 50.4171 49.7384C49.9964 48.7537 49.7841 47.6926 49.7938 46.6218C49.7915 45.5909 49.9908 44.5695 50.3804 43.6151H50.3438ZM54.4963 42.451C53.6522 43.1586 53.0657 44.1254 52.8279 45.201H61.9946C61.7773 44.1262 61.2021 43.1568 60.3629 42.451C59.5348 41.7749 58.4986 41.4056 57.4296 41.4056C56.3606 41.4056 55.3244 41.7749 54.4963 42.451ZM35.4296 33.4951V41.0209C36.1218 40.3438 36.9328 39.8 37.8221 39.4168C38.7521 39.0085 39.7581 38.8023 40.7738 38.8118C42.8716 38.8076 44.8855 39.635 46.3746 41.1126C47.0874 41.8363 47.6566 42.6886 48.0521 43.6243C48.4717 44.5932 48.684 45.6392 48.6754 46.6951C48.685 47.7452 48.4726 48.7854 48.0521 49.7476C47.655 50.6797 47.086 51.5287 46.3746 52.2501C44.8855 53.7278 42.8716 54.5551 40.7738 54.5509C39.7524 54.5583 38.7408 54.3522 37.8038 53.9459C36.9045 53.5353 36.0899 52.9602 35.4021 52.2501V54.1385H32.4504V33.4951H35.4296ZM35.7504 48.6934C36.0101 49.3099 36.3868 49.8702 36.8596 50.3434C37.3313 50.8161 37.888 51.1955 38.5004 51.4618C39.1429 51.7387 39.8358 51.8792 40.5354 51.8743C41.226 51.8775 41.9096 51.737 42.5429 51.4618C43.1559 51.1965 43.7128 50.817 44.1838 50.3434C44.6449 49.8626 45.0173 49.304 45.2838 48.6934C45.5607 48.051 45.7012 47.358 45.6963 46.6585C45.7013 45.9529 45.5609 45.2539 45.2838 44.6051C45.022 43.9865 44.6492 43.4211 44.1838 42.9368C43.7148 42.4631 43.1572 42.0863 42.5429 41.8276C41.5954 41.4282 40.5503 41.3204 39.5412 41.5179C38.5321 41.7155 37.6048 42.2095 36.8779 42.9368C36.4006 43.4171 36.0181 43.9831 35.7504 44.6051C35.4733 45.2539 35.3329 45.9529 35.3379 46.6585C35.3372 47.3576 35.4774 48.0498 35.7504 48.6934Z" fill="white"/>
</g>
<defs>
<clipPath id="clip0_0_1">
<rect width="88" height="88" rx="44" fill="white"/>
</clipPath>
</defs>
</svg>
