<svg width="49" height="49" viewBox="-8.5 0 49 49" fill="none" xmlns="http://www.w3.org/2000/svg">
<rect x="-8.5" y="0" width="49" height="49" fill="#EFBF00"/>
<path d="M4.56142 29.0982C4.61006 29.1666 4.63145 29.2506 4.62144 29.3339C4.59943 29.4518 4.50741 29.4638 4.4434 29.5697C4.35738 29.7096 4.42539 29.9594 4.56142 30.451C4.58788 30.5278 4.60795 30.6066 4.62144 30.6868C4.62233 30.8966 4.56032 31.1019 4.4434 31.2762C4.29136 31.544 4.17934 31.594 4.20734 31.6879C4.24735 31.8158 4.4734 31.7578 4.62144 31.9237C4.68268 32.0185 4.71995 32.1268 4.73005 32.2392C4.74016 32.3517 4.72279 32.4649 4.67945 32.5691C4.54342 32.9687 4.16133 33.0886 4.20734 33.2165C4.25335 33.3444 4.83949 33.2505 4.9155 33.4523C4.94951 33.5482 4.84949 33.6521 4.9155 33.7461C4.98152 33.84 5.02153 33.792 5.09154 33.8639C5.13654 33.9097 5.16642 33.9681 5.17715 34.0314C5.18788 34.0946 5.17895 34.1596 5.15156 34.2176C5.07954 34.3156 4.95151 34.2456 4.85549 34.3355C4.75947 34.4255 4.81148 34.5733 4.85549 34.8051C4.97752 35.4486 4.88149 35.4366 4.97352 35.5705C5.04353 35.6724 5.29559 35.7943 5.7977 36.042C5.95374 36.118 6.06176 36.1679 6.09377 36.2778C6.13378 36.4237 5.99375 36.5356 5.91573 36.6895C5.71568 37.1091 6.03776 37.6886 6.26981 38.1002C6.55387 38.5998 6.74192 38.6517 6.91796 39.0414C6.98101 39.2178 7.0813 39.3787 7.21202 39.513C7.30605 39.6029 7.34806 39.6109 7.38806 39.6888C7.49009 39.8886 7.32205 40.0065 7.38806 40.2184C7.45408 40.4302 7.57611 40.3482 7.74214 40.63C7.82416 40.7679 7.82216 40.8298 7.91818 40.9257C8.0142 41.0216 8.09822 41.0137 8.15424 41.1016C8.21025 41.1895 8.20425 41.2634 8.15424 41.5132C8.09422 41.8149 8.06222 41.8289 8.03621 41.9848C7.98487 42.2458 8.02662 42.5166 8.15424 42.7501C8.23969 42.8598 8.33847 42.9585 8.4483 43.0439C8.69836 43.2637 8.82239 43.3736 8.92041 43.3956C9.19847 43.4595 9.3105 43.2077 9.7446 43.2197C9.85462 43.2197 10.0387 43.2197 10.0987 43.3376C10.1747 43.4775 10.0027 43.7033 9.92264 43.8092C9.77099 43.9919 9.59221 44.1502 9.39252 44.2788C9.39252 44.2948 10.0187 43.8312 10.2167 43.985C10.3047 44.053 10.2307 44.1849 10.2747 44.6325C10.3187 45.0801 10.4127 45.176 10.4528 45.2199C10.5528 45.3318 10.7388 45.4517 10.8649 45.3978C10.9909 45.3438 10.9509 45.112 11.1009 45.0441C11.1645 45.0238 11.2329 45.0243 11.2963 45.0455C11.3596 45.0667 11.4145 45.1075 11.453 45.162C11.487 45.2253 11.5047 45.296 11.5047 45.3678C11.5047 45.4396 11.487 45.5103 11.453 45.5736C11.383 45.7375 11.2849 45.7475 11.2769 45.8674C11.2786 45.9273 11.2957 45.9858 11.3265 46.0372C11.3573 46.0887 11.4009 46.1313 11.453 46.1611C11.551 46.2211 11.609 46.1891 11.7471 46.2211C11.9471 46.265 11.9471 46.3589 12.1611 46.4569C12.3752 46.5548 12.3892 46.4788 12.7493 46.5728C13.0453 46.6527 13.0393 46.7026 13.1614 46.6906C13.3974 46.6707 13.4334 46.4908 13.6915 46.4569C13.8355 46.4409 14.0136 46.4828 14.0456 46.5728C14.0776 46.6627 13.9516 46.7406 13.9856 46.8085C14.0196 46.8765 14.2956 46.7966 14.3977 46.9264C14.4517 46.9924 14.3977 47.0483 14.4577 47.1023C14.5617 47.2102 14.8037 47.0723 14.8698 47.1622C14.9118 47.2182 14.8338 47.2981 14.8698 47.3381C14.9398 47.418 15.2458 47.1243 15.5179 47.2202C15.6099 47.2542 15.7019 47.3321 15.6939 47.398C15.6859 47.464 15.4679 47.484 15.3999 47.6318C15.3784 47.6812 15.3725 47.7359 15.3829 47.7887C15.3932 47.8415 15.4194 47.8899 15.4579 47.9276C15.6139 48.0435 15.938 47.7977 15.988 47.8676C16.038 47.9375 15.752 48.1554 15.812 48.2792C15.872 48.4031 16.072 48.3812 16.2241 48.3392C16.3761 48.2972 16.4041 48.1973 16.5781 48.1633C16.7522 48.1294 16.7782 48.2073 16.9322 48.1633C17.0863 48.1194 17.1183 48.0295 17.2263 48.0455C17.3343 48.0614 17.3203 48.1194 17.4023 48.1633C17.5844 48.2553 17.7344 48.0415 18.1105 47.9855C18.3686 47.9475 18.4646 48.0255 18.5806 47.9276C18.6966 47.8296 18.6466 47.7277 18.7566 47.6318C18.8329 47.574 18.926 47.5426 19.0217 47.5426C19.1174 47.5426 19.2105 47.574 19.2868 47.6318C19.4428 47.7917 19.1867 48.1214 19.3468 48.2792C19.3776 48.3087 19.4156 48.3297 19.4569 48.3402C19.4983 48.3507 19.5416 48.3503 19.5828 48.3392C19.7289 48.2972 19.6969 48.1174 19.8769 47.9276C20.0249 47.7677 20.1149 47.8237 20.289 47.6318C20.3732 47.5516 20.4341 47.4501 20.465 47.3381C20.515 47.1383 20.359 46.9664 20.407 46.9264C20.455 46.8865 20.543 47.0323 20.7011 47.0443C20.7591 47.0443 20.8631 47.0443 21.2312 46.6906C21.3552 46.5747 21.4312 46.4908 21.6433 46.279C21.8994 46.0252 21.9654 45.9673 21.9974 45.9853C22.0754 46.0292 21.8773 46.4868 21.9374 46.5148C21.9974 46.5428 22.0914 46.315 22.1734 46.339C22.2554 46.3629 22.2314 46.6827 22.2914 46.6906C22.3515 46.6986 22.4115 46.5008 22.4675 46.339C22.4987 46.2185 22.5381 46.1003 22.5855 45.9853C22.7055 45.7854 22.8436 45.8294 22.9976 45.6316C23.1236 45.4757 23.0496 45.4318 23.1756 45.2199C23.3437 44.9382 23.5037 44.9742 23.5877 44.7504C23.6718 44.5266 23.5437 44.4546 23.6457 44.2788C23.7478 44.1029 23.8898 44.1349 23.9418 43.985C23.9938 43.8352 23.8538 43.7612 23.8818 43.5734C23.9058 43.4175 24.0078 43.4155 24.1759 43.1618C24.3099 42.9619 24.2639 42.932 24.4119 42.6902C24.56 42.4484 24.624 42.4644 24.706 42.2785C24.816 42.0308 24.756 41.9029 24.884 41.8069C25.0121 41.711 25.0681 41.789 25.1781 41.6911C25.2881 41.5931 25.2581 41.5012 25.3541 41.4553C25.4502 41.4093 25.5162 41.4812 25.5902 41.4553C25.7342 41.4013 25.7182 41.0276 25.7082 40.63C25.6822 39.7008 25.7082 39.539 25.8262 39.455C25.9983 39.3271 26.2043 39.485 26.3564 39.3371C26.4224 39.2712 26.4624 39.1633 26.4144 38.7377C26.3444 38.1242 26.2143 37.9943 26.2383 37.6786C26.2543 37.4528 26.3484 37.2929 26.5324 36.9732C26.6604 36.7514 26.7525 36.6415 27.5326 35.7383C27.7427 35.4945 27.9067 35.2128 28.1208 34.973C28.2456 34.8679 28.3292 34.7221 28.3568 34.5613C28.3505 34.3893 28.2888 34.2239 28.1808 34.0898C28.0607 33.9379 27.9507 33.9099 27.9447 33.796C27.9387 33.6821 28.0047 33.6601 28.0627 33.5602C28.1408 33.4243 28.1348 33.2725 28.1208 32.9727C28.0988 32.4852 28.0087 32.3233 28.1208 32.2074C28.2028 32.1235 28.2768 32.1774 28.3568 32.0895C28.4968 31.9356 28.3148 31.7119 28.4148 31.5C28.5149 31.2882 28.8549 31.3722 29.005 31.1483C29.083 31.0305 29.061 30.8986 28.8289 30.0893C28.6629 29.5138 28.5909 29.29 28.7109 29.1481C28.8309 29.0062 28.9109 29.1041 29.063 28.9703C29.215 28.8364 29.193 28.6106 29.299 28.089C29.355 27.8073 29.379 27.8153 29.4171 27.6175C29.5831 26.7682 29.217 26.3666 29.4751 25.7351C29.4871 25.7051 29.6271 25.3694 29.7711 25.3814C29.8532 25.3814 29.8832 25.5093 29.9472 25.4993C30.0512 25.4833 30.0172 25.1596 30.1832 25.0877C30.2793 25.0457 30.3493 25.1296 30.4193 25.0877C30.5273 25.0197 30.4513 24.748 30.4193 24.4882C30.3933 24.2884 30.4193 24.3423 30.4773 23.4891C30.5193 22.8157 30.4993 22.8157 30.5353 22.43C30.5553 22.2302 30.6273 21.4869 30.7134 21.4889C30.7994 21.4909 30.8334 22.1962 30.8894 22.1942C30.9454 22.1922 30.9554 21.8825 30.9494 21.5468C30.9352 21.1299 30.8755 20.7158 30.7714 20.3119C30.5893 19.4666 30.7514 19.5126 30.5953 18.7812C30.3981 17.9826 30.101 17.2118 29.7111 16.4873C29.5871 16.2415 29.4431 15.9777 29.4751 15.9577C29.5071 15.9377 29.8392 16.3394 30.0652 16.6631C30.3117 17.0177 30.5285 17.3919 30.7134 17.7821C31.2855 18.9931 31.4835 19.9122 31.5375 19.9003C31.5916 19.8883 31.5255 19.3747 31.3615 18.7812C31.1795 18.1278 31.0254 17.966 30.3613 16.6052C30.1029 16.0183 29.8076 15.4483 29.4771 14.8987C29.4591 14.8687 29.4771 14.8987 28.947 14.1333C28.3588 13.2841 28.2248 13.0843 27.9467 13.0163C27.7207 12.9604 27.5806 13.0323 27.4166 12.8984C27.2773 12.7556 27.1936 12.5678 27.1805 12.3689C27.1325 12.0632 27.2306 12.0292 27.1805 11.8394C27.0905 11.5017 26.6884 11.2759 26.4144 11.1919C26.1403 11.108 25.9683 11.1759 25.7662 11.0161C25.6538 10.9249 25.5722 10.8014 25.5322 10.6624C25.4722 10.4386 25.5862 10.3387 25.6502 10.015C25.7202 9.6413 25.6002 9.61532 25.6502 9.13174C25.6882 8.74409 25.7942 8.49431 25.7662 8.48432C25.7382 8.47433 25.5662 8.74009 25.4722 9.0738C25.4314 9.30667 25.412 9.54278 25.4142 9.77918C25.3681 10.2528 25.2141 10.6684 25.1781 10.6624C25.1421 10.6564 25.1621 10.0629 25.1781 9.77918C25.1961 9.45746 25.2201 9.26163 25.1781 9.24965C25.1361 9.23766 25.0761 9.42948 24.884 9.72123C24.774 9.88708 24.574 10.1568 24.5299 10.1329C24.4859 10.1089 24.556 9.84312 24.706 9.60333C24.93 9.24764 25.1741 9.22567 25.2361 8.9559C25.2541 8.88597 25.2361 8.88996 25.1781 8.54427C25.1081 8.12264 25.0981 7.92082 25.0021 7.54515C24.95 7.34532 24.912 7.24741 24.884 7.25141C24.818 7.25141 24.906 7.80292 24.706 7.89883C24.588 7.95478 24.4159 7.8289 24.3539 7.78094C23.7118 7.29337 22.6835 6.48808 22.3535 6.25029C21.9834 5.98852 21.1532 5.39704 20.115 5.36906C19.7149 5.35707 19.2628 5.42901 18.8767 5.13327C18.6766 4.9834 18.6006 4.81355 18.2885 4.66168C17.9765 4.50982 17.7784 4.5338 17.7584 4.42789C17.7284 4.27203 18.1765 4.18611 18.2285 3.89836C18.2805 3.61061 17.8564 3.27091 17.8764 3.25093C17.8964 3.23094 18.3766 3.72651 18.4646 3.66256C18.5526 3.59862 18.2645 3.31088 18.3465 3.01514C18.4026 2.8253 18.5646 2.77535 19.1127 2.4856C20.1129 1.95407 20.247 1.76624 20.291 1.60238C20.3 1.49488 20.3412 1.39256 20.409 1.30864C20.5811 1.13279 20.8631 1.21072 20.8791 1.13279C20.8951 1.05486 20.6951 0.900998 20.467 0.897002C20.185 0.897002 20.0309 1.1308 19.9369 1.07285C19.8429 1.0149 20.0629 0.637233 19.9369 0.42542C19.7769 0.157656 19.0587 0.197621 18.4646 0.42542C17.6644 0.735147 17.6024 1.19074 16.5201 1.83817C15.952 2.17987 15.4739 2.34973 15.4019 2.24981C15.3299 2.1499 15.826 1.6903 15.6959 1.48448C15.6439 1.40256 15.5439 1.44452 15.2258 1.30864C15.0258 1.22072 14.9978 1.17476 14.9298 1.19074C14.7577 1.23071 14.7917 1.55043 14.5777 1.78023C14.4131 1.9226 14.2051 2.00502 13.9876 2.01402C13.2074 2.17787 13.2594 3.24094 12.2212 4.13215C11.645 4.62771 11.381 4.51381 10.8068 5.13127C10.4848 5.47896 10.2327 5.87661 10.1587 5.83665C10.0847 5.79668 10.3107 5.20321 10.2767 5.18922C10.1552 5.46432 9.99712 5.72176 9.80661 5.95454C9.57856 6.20033 9.23648 6.43412 9.15846 6.36618C9.02843 6.25428 9.63057 5.27115 10.2187 4.54379C10.8989 3.69653 11.2409 3.27291 11.573 3.01314C11.7424 2.88698 11.8829 2.72622 11.9851 2.54155C12.0707 2.35463 12.1306 2.15701 12.1631 1.95407C12.3092 1.50647 12.7053 1.50047 13.4574 0.895002C13.9596 0.495354 14.2576 0.113691 14.2236 0.0717279C14.1896 0.0297649 13.6895 0.415428 13.5755 0.305525C13.5115 0.243579 13.6355 0.0757269 13.5755 0.0117832C13.5155 -0.0521604 13.1214 0.149659 12.5752 0.483365C11.523 1.1228 11.431 1.16277 11.2789 1.36459C11.139 1.59254 10.9811 1.80903 10.8068 2.01202C10.7748 2.04999 10.3487 2.50759 10.2187 2.42366C10.1387 2.3737 10.2587 2.17388 10.1587 2.07197C10.0587 1.97006 9.66058 2.07197 9.39452 2.24781C9.17577 2.40209 8.99459 2.60355 8.8644 2.83729C8.60834 3.23694 8.49231 3.25093 7.80416 3.95431C6.54387 5.24118 5.7737 6.37218 5.68368 6.30824C5.59366 6.24429 5.94774 5.59686 6.38984 5.01338C6.78993 4.48784 7.17802 4.15613 7.15601 4.13015C7.13401 4.10417 6.15578 4.96142 6.09577 4.89548C6.03576 4.82954 6.39584 4.40791 6.80193 4.01426C7.42407 3.41478 7.94019 3.165 7.92018 3.13103C7.90018 3.09706 7.01198 3.41678 6.15378 4.13015C5.49763 4.67767 4.94351 5.37306 5.09354 5.60286C5.16356 5.70677 5.3536 5.6668 5.38761 5.7787C5.43962 5.94655 5.07754 6.25028 4.97551 6.19034C4.87349 6.13039 5.02753 5.80068 4.97551 5.7787C4.9235 5.75672 4.62944 6.20832 4.38738 6.77782C4.16991 7.2911 4.01152 7.8274 3.91528 8.37641C3.63321 9.95502 4.0193 10.3407 3.56319 11.0261C3.42716 11.2259 3.22712 11.4437 3.26713 11.7315C3.30714 12.0192 3.54919 12.0732 3.73924 12.4368C3.95529 12.8505 3.97129 13.404 3.79725 13.4959C3.62321 13.5878 3.21912 13.1742 2.91505 12.8485C1.88082 11.7434 1.57275 10.7923 1.3827 10.8502C1.23867 10.8942 1.20266 11.5077 1.3827 12.0871C1.69077 13.0723 2.41093 13.2641 2.44294 14.0854C2.41993 14.3421 2.38051 14.597 2.32492 14.8487C2.19089 15.604 2.12487 15.66 2.08886 16.0856C2.03285 16.7131 2.15688 16.765 2.03085 16.9668C1.78079 17.3665 1.23067 17.2766 1.08863 17.6742C1.01862 17.874 1.15465 17.91 1.08863 18.1438C0.988612 18.4935 0.664539 18.4915 0.380474 18.9691C0.302457 19.101 0.194432 19.2888 0.264448 19.4387C0.334463 19.5885 0.484498 19.5606 0.558514 19.6745C0.688544 19.8743 0.410481 20.23 0.264448 20.4977C-0.227664 21.3929 0.0844068 22.472 0.264448 23.0954C0.396478 23.555 0.588522 23.9387 0.676542 23.9187C0.764562 23.8987 0.604525 23.2593 0.910595 22.5659C1.05863 22.2342 1.32069 21.8765 1.44072 21.9185C1.59475 21.9724 1.3747 22.6159 1.3827 23.625C1.37235 24.3465 1.4923 25.0641 1.73678 25.7431C2.02085 26.4945 2.21889 26.4605 2.61898 27.4496C2.86704 28.0491 3.06708 28.7505 3.09109 28.7445C3.02618 28.4745 3.00658 28.1956 3.03308 27.9192C3.05708 27.7194 3.1251 27.4496 3.20912 27.4496C3.29314 27.4496 3.30314 27.7034 3.50318 28.097C3.58321 28.2961 3.70379 28.4765 3.85726 28.6266C4.13733 28.8724 4.39739 28.8264 4.56142 29.0982Z" fill="#1A1A1A"/>
<path d="M8.48125 23.7138C8.48125 23.6339 9.44547 23.44 10.4257 23.3601C11.3064 23.2609 12.1956 23.2609 13.0763 23.3601C13.6244 23.43 14.0925 23.536 14.1365 23.4201C14.1805 23.3042 13.8945 23.0684 13.6064 22.9485C13.4204 22.8725 13.2503 22.8566 13.2523 22.8306C13.2543 22.8046 13.7164 22.8306 13.7244 22.7726C13.7324 22.7147 13.3744 22.6607 12.8402 22.4789C12.5962 22.395 12.4702 22.339 12.3701 22.301C12.1701 22.2251 11.732 22.1012 10.6617 22.1252C9.84756 22.1492 9.29144 22.1652 8.59928 22.361C7.12495 22.7766 6.39878 23.6279 6.06671 23.3601C5.95068 23.2662 6.0367 23.1603 5.94868 22.5368C5.86066 21.9134 5.74863 21.8594 5.65461 21.242C5.63661 21.1101 5.65461 21.17 5.5946 20.125C5.55459 19.3417 5.54659 19.2977 5.5946 19.1838C5.76064 18.7961 6.06471 18.8221 6.36077 18.3006C6.4928 18.0688 6.43679 18.0548 6.59683 17.771C6.77687 17.4493 6.95491 17.1316 7.24497 17.0657C7.49503 17.0077 7.50703 17.2135 8.01115 17.2995C8.34722 17.3594 8.58528 17.3095 8.89335 17.4773C8.96736 17.5173 9.08139 17.5892 9.07139 17.6531C9.06139 17.7171 8.89335 17.7351 8.89335 17.771C8.89335 17.807 9.28344 17.837 9.77755 17.9469C9.85557 17.9649 9.9876 17.9469 10.0136 18.0068C10.0396 18.0668 9.87157 18.1907 9.89557 18.2426C9.91958 18.2946 10.3537 18.0888 10.8378 18.1247C11.041 18.1559 11.2389 18.2151 11.4259 18.3006C12.0081 18.4804 12.2101 18.3385 13.1343 18.4185C13.6424 18.4624 14.1345 18.5544 14.1345 18.5943C14.1345 18.6343 13.7184 18.6183 12.7802 18.6543C12.0421 18.6822 12.0141 18.7022 12.0141 18.7122C12.0141 18.7702 12.7702 19.0299 13.6624 18.948C14.2746 18.8921 15.0167 18.6703 15.3128 18.948C15.3468 18.98 15.4508 19.0899 15.5489 19.0659C15.6469 19.0419 15.6249 18.904 15.7249 18.8301C15.9249 18.6842 16.251 19.0299 16.5491 18.8881C16.6811 18.8261 16.6631 18.7382 16.7851 18.7122C17.0032 18.6663 17.1412 18.936 17.3153 18.8881C17.4453 18.8541 17.4313 18.6882 17.5513 18.5364C17.7654 18.2646 18.1775 18.3525 18.6696 18.3006C19.2357 18.2406 19.1417 18.0768 19.9078 17.8889C20.792 17.6711 20.8921 17.8889 21.6162 17.6531C22.1384 17.4773 22.1844 17.3274 22.6765 17.2415C23.2126 17.1476 23.2966 17.3055 23.6767 17.1836C24.2448 16.9997 24.2548 16.5841 24.7369 16.4762C25.219 16.3683 25.6331 16.66 25.7972 16.7699C26.3273 17.1256 26.5493 17.6671 26.7394 18.2426C27.053 19.1991 27.2701 20.1844 27.3875 21.184C27.4456 21.6376 27.8036 24.4492 27.6236 24.4791C27.5496 24.4911 27.5296 24.0055 27.1515 23.5959C26.7074 23.1143 26.0412 23.0384 25.5611 23.0084C24.2068 22.9205 22.8445 23.0844 19.9078 23.7138C19.9078 23.7138 17.8954 24.1454 17.3733 24.8908C17.3119 24.9843 17.2323 25.0644 17.1392 25.1266C16.8572 25.3064 16.5871 25.2145 16.019 25.1845C15.3488 25.1505 15.4188 25.2624 15.1368 25.1845C14.7927 25.0886 14.7247 24.9287 14.1365 24.597C14.1365 24.597 13.9225 24.4751 13.5364 24.3013C12.8182 23.9696 11.842 23.8297 10.4157 23.7717C9.1274 23.7198 8.48726 23.7777 8.48125 23.7138Z" fill="#EFBF00"/>
<path d="M14.3118 26.5988C14.1751 26.172 13.9322 25.787 13.6056 25.4798C13.0735 24.9882 12.4774 24.8903 11.3091 24.7164C10.3742 24.5589 9.42125 24.5387 8.48048 24.6565C7.34222 24.8243 6.92012 25.1261 6.71408 25.3039C6.40406 25.5415 6.1772 25.8709 6.06593 26.2451C5.9599 26.6607 6.09193 26.9145 6.36 27.8936C6.68207 29.0666 6.56004 28.9567 6.71408 29.3044C7.04594 30.045 7.60222 30.6629 8.30444 31.0708C8.74664 31.2973 9.22918 31.4345 9.72448 31.4746C10.2198 31.5147 10.7181 31.457 11.1911 31.3046C11.756 31.1182 12.2768 30.8183 12.7214 30.4234C13.2075 30.0238 13.8497 29.5182 14.1938 28.599C14.4649 27.9663 14.5067 27.2589 14.3118 26.5988Z" fill="#EFBF00"/>
<path d="M18.5042 25.363C18.2862 25.6687 18.2822 26.0344 18.3282 26.4221C18.4539 27.4156 18.8176 28.3643 19.3884 29.1876C19.8605 29.8171 20.3486 30.4665 21.2728 30.7762C22.003 31.0039 22.788 30.9835 23.5053 30.7183C24.6296 30.3326 25.2297 29.5193 25.5658 29.0697C25.9807 28.5059 26.2811 27.8665 26.45 27.1874C26.6501 26.47 26.8501 25.7447 26.508 25.0113C26.3687 24.6673 26.1208 24.3783 25.8019 24.188C25.5558 24.0502 25.2817 23.9882 24.6836 24.0102C24.1084 24.039 23.5367 24.1179 22.9752 24.246C21.895 24.4458 21.3549 24.5497 20.7947 24.5997C20.2524 24.6125 19.7155 24.7117 19.2044 24.8934C18.9282 24.9744 18.6838 25.1383 18.5042 25.363Z" fill="#EFBF00"/>
<path d="M17.6706 28.7155C17.7026 28.6955 17.4706 28.4298 17.3746 27.9502C17.2345 27.2848 17.4746 26.8611 17.2585 26.7153C17.1785 26.6613 17.1445 26.7153 16.7284 26.7153C16.4344 26.7153 16.1803 26.7153 16.1383 26.5974C16.0963 26.4795 16.2903 26.3436 16.2563 26.3036C16.2223 26.2637 15.7682 26.5734 15.6682 26.4795C15.5682 26.3856 15.7902 26.1178 15.7262 26.0679C15.6622 26.0179 15.3881 26.1638 15.2541 26.4195C15.1201 26.6753 15.2401 26.9211 15.2541 27.4786C15.2482 27.7346 15.2288 27.99 15.1961 28.2439C15.1721 28.4777 15.088 29.327 15.02 29.6567C14.784 30.7877 13.5377 31.533 13.1336 31.7748C12.1865 32.3141 11.1002 32.5596 10.0129 32.4802C9.30397 32.4906 8.60093 32.3503 7.95043 32.0686C6.33606 31.3272 5.67191 29.7726 5.47587 29.8925C5.37584 29.9544 5.6459 30.3161 5.77193 31.2453C5.78617 31.5715 5.86576 31.8915 6.00599 32.1865C6.1013 32.3595 6.22049 32.5182 6.36007 32.658C6.81017 33.1396 7.07823 33.6312 7.48032 34.3645C7.96843 35.2577 7.88041 35.4196 8.18648 35.5994C8.58657 35.8412 9.08268 35.7513 9.6008 35.6574C10.0443 35.5615 10.4777 35.4237 10.8951 35.2458C11.1609 35.1228 11.4375 35.0244 11.7213 34.952C12.1214 34.8741 12.5335 34.7882 12.8395 35.01C13.0076 35.1319 13.0276 35.2637 13.3697 35.5395C13.4177 35.5775 13.6297 35.7393 13.6637 35.7173C13.6977 35.6954 13.5537 35.5315 13.4297 35.2458C13.3456 35.0579 13.2296 34.7942 13.3116 34.7162C13.3937 34.6383 13.7998 34.8601 14.1358 35.0699C14.754 35.4576 14.714 35.5575 15.02 35.6574C15.3836 35.7742 15.7747 35.7742 16.1383 35.6574C16.4143 35.5655 16.4784 35.4576 16.6684 35.4816C16.9845 35.5215 17.0105 35.8392 17.3166 35.8932C17.4686 35.9192 17.4886 35.8472 18.0827 35.5994C18.5068 35.4216 18.5868 35.4216 18.6709 35.3057C18.8269 35.0899 18.6809 34.9241 18.7889 34.6583C18.9409 34.2806 19.439 34.0968 19.7891 34.0588C20.1392 34.0208 20.3652 34.1607 20.8494 34.4125C21.5075 34.7562 21.9556 34.99 22.2617 35.4716C22.3397 35.5915 22.4397 35.7773 22.5577 35.7653C22.6758 35.7533 22.6898 35.5975 22.8518 35.2957C22.9638 35.0508 23.1236 34.8307 23.3219 34.6483C23.4759 34.5204 23.494 34.5684 23.852 34.3545C24.1781 34.1547 24.1481 34.1287 24.3822 34.0009C24.624 33.8707 24.8814 33.772 25.1483 33.7071C25.4504 33.6372 25.5164 33.6731 25.6204 33.5892C25.7925 33.4473 25.7665 33.2195 25.7965 32.8818C25.8482 32.4162 25.9675 31.9604 26.1506 31.529C26.3386 31.1034 26.4926 30.9935 26.5026 30.6478C26.5026 30.484 26.4746 30.462 26.4446 30.1183C26.3966 29.5907 26.4446 29.3729 26.3866 29.353C26.2926 29.323 26.1346 29.7526 25.8565 30.1762C25.424 30.821 24.8366 31.3472 24.1481 31.7069C23.7287 31.9452 23.2689 32.1044 22.7918 32.1765C21.9125 32.2783 21.0238 32.0925 20.2592 31.6469C19.9071 31.4571 19.513 31.1074 18.7289 30.412C18.2933 30.0427 17.8983 29.628 17.5506 29.1751C17.1225 28.6116 17.0125 28.2939 16.9605 28.0581C16.8806 27.7494 16.8806 27.4256 16.9605 27.1169C16.9887 27.3346 17.0281 27.5507 17.0785 27.7644C17.2545 28.3378 17.6286 28.7395 17.6706 28.7155Z" fill="#EFBF00"/>
<path d="M12.9579 36.3633C12.9799 36.4432 12.5718 36.625 12.2517 36.715C11.9316 36.8049 11.5075 36.8508 11.4855 36.7749C11.4635 36.699 11.7576 36.5591 11.9556 36.4812C12.4118 36.3013 12.9359 36.2753 12.9579 36.3633Z" fill="#EFBF00"/>
<path d="M12.1888 39.4826C12.0421 39.5438 11.9037 39.623 11.7767 39.7184C11.6109 39.8484 11.4711 40.0083 11.3646 40.19C11.0385 40.7754 11.2525 41.5368 11.3646 41.5428C11.4446 41.5428 11.4506 41.1531 11.6006 41.1311C11.7507 41.1091 11.9047 41.5867 12.3068 42.2481C12.6449 42.8017 12.8709 43.1633 13.307 43.3672C13.421 43.4191 13.9311 43.6389 14.3672 43.4251C14.5853 43.3192 14.5793 43.2033 14.8373 42.9555C15.1852 42.6337 15.6126 42.4102 16.0756 42.3081C16.438 42.1976 16.8218 42.177 17.1939 42.2481C17.556 42.3356 17.8963 42.4961 18.1941 42.7197C18.5162 42.9695 18.6302 43.1853 18.9003 43.1893C18.9775 43.1908 19.0542 43.1759 19.1252 43.1456C19.1962 43.1152 19.26 43.0702 19.3124 43.0135C19.4644 42.8396 19.4164 42.6138 19.4304 42.426C19.4604 42.0263 19.7485 41.9084 20.3146 41.249C20.9647 40.4877 21.1728 39.9502 21.4328 40.0121C21.5989 40.0521 21.6089 40.2919 21.7869 40.3079C21.899 40.3079 21.987 40.2279 22.317 39.8363C22.489 39.6531 22.6462 39.4567 22.7872 39.2488C22.9214 38.9958 22.9631 38.7039 22.9052 38.4235C22.8952 38.3776 22.7671 37.87 22.4931 37.836C22.219 37.8021 22.121 38.3336 21.6689 38.4235C21.2988 38.4974 21.1368 38.1837 20.7847 38.3056C20.5166 38.4015 20.5086 38.6233 20.2546 38.6593C20.0005 38.6953 19.9265 38.4755 19.6664 38.4835C19.3484 38.4835 19.3124 38.8272 18.8423 39.0709C18.5743 39.2237 18.2643 39.286 17.9581 39.2488C17.518 39.1709 17.2619 38.8372 17.0739 38.9531C16.9678 39.021 16.9958 39.1529 16.8978 39.1888C16.7598 39.2248 16.6798 38.9471 16.4257 38.8951C16.2257 38.8531 16.1436 39.011 15.9556 38.9531C15.7676 38.8951 15.7556 38.6873 15.6015 38.6593C15.4475 38.6313 15.2895 38.8771 15.0134 39.1309C14.7912 39.336 14.5309 39.4956 14.2472 39.6005C13.479 39.8622 12.8969 39.2048 12.1888 39.4826Z" fill="#EFBF00"/>
<path d="M24.6189 36.5428C24.5709 36.5208 24.4189 36.6627 24.3829 36.8365C24.3469 37.0104 24.4429 37.2522 24.5009 37.2482C24.5589 37.2442 24.5849 37.0363 24.6189 36.7786C24.6469 36.5628 24.6269 36.5468 24.6189 36.5428Z" fill="#EFBF00"/>
<path d="M26.267 22.2449C26.1689 22.3828 25.2147 21.6255 24.0284 21.2458C22.4101 20.7283 20.6597 21.006 20.2576 21.0699C19.7315 21.1519 18.8933 21.3317 18.8453 21.1878C18.8153 21.0979 19.1053 20.9361 19.0793 20.8941C19.0533 20.8521 18.6632 21.018 17.9611 21.3057C17.627 21.4416 17.451 21.5056 17.431 21.4816C17.4109 21.4576 17.753 21.1519 17.785 21.1279C17.9851 20.964 18.0891 20.9281 18.0791 20.8941C18.0591 20.8222 17.679 20.8242 17.3129 20.952C17.148 21.0144 16.9898 21.0934 16.8408 21.1878C17.1313 20.9387 17.4479 20.7216 17.785 20.5404C18.1851 20.3266 18.6692 20.1408 20.3176 20.0109C21.836 19.885 22.5961 19.8111 23.4983 20.0109C24.0739 20.1239 24.6295 20.3219 25.1467 20.5984C25.9989 21.0719 26.605 21.7154 26.561 21.7753C26.517 21.8353 25.7748 21.3637 25.7368 21.4236C25.6988 21.4836 25.9969 21.6554 26.2069 22.0711C26.259 22.169 26.283 22.2189 26.267 22.2449Z" fill="#1A1A1A"/>
<path d="M28.806 17.299C28.7579 17.319 28.932 17.7227 29.1 18.3581C29.5121 19.9127 29.4281 21.0657 29.5121 21.0657C29.5961 21.0657 29.6301 20.4662 29.6301 20.0067C29.6412 19.5297 29.5819 19.0536 29.4541 18.5939C29.244 17.8745 28.866 17.2751 28.806 17.299Z" fill="#EFBF00"/>
<path d="M20.4387 12.2988C20.4287 12.3688 20.1486 12.4327 19.9086 12.3568C19.6005 12.2609 19.3885 11.9571 19.4365 11.8852C19.4845 11.8133 19.7245 11.9352 20.1426 12.121C20.4227 12.2449 20.4407 12.2769 20.4387 12.2988Z" fill="#EFBF00"/>
<path d="M17.7881 11.5344C17.7881 11.6243 17.252 11.7762 16.9619 11.5344C16.8079 11.4045 16.7319 11.1687 16.7859 11.1227C16.8399 11.0768 16.9099 11.1527 17.0799 11.2406C17.544 11.4784 17.7921 11.4724 17.7881 11.5344Z" fill="#EFBF00"/>
<path d="M15.4926 10.3603C15.4264 10.4104 15.1838 10.2662 15.1979 10.1841C15.2083 10.1626 15.2231 10.1435 15.2413 10.128C15.2595 10.1125 15.2808 10.101 15.3037 10.0941C15.3266 10.0873 15.3507 10.0853 15.3745 10.0882C15.3982 10.0912 15.4211 10.0991 15.4416 10.1114C15.4621 10.1236 15.4799 10.1401 15.4937 10.1596C15.5075 10.1791 15.5172 10.2012 15.522 10.2246C15.5268 10.2481 15.5266 10.2722 15.5216 10.2956C15.5165 10.3189 15.5066 10.341 15.4926 10.3603Z" fill="#EFBF00"/>
<path d="M15.2512 9.88653C15.2052 9.90651 15.0751 9.75665 15.0171 9.5928C14.9591 9.42894 14.9671 9.19314 15.0171 9.18115C15.0671 9.16916 15.1612 9.38098 15.1932 9.47489C15.2492 9.62676 15.2972 9.86455 15.2512 9.88653Z" fill="#EFBF00"/>
<path d="M15.8969 8.77204C15.8289 8.83399 15.5068 8.68212 15.3668 8.41836C15.1668 8.04269 15.3848 7.53314 15.4848 7.53713C15.5488 7.53713 15.5388 7.73696 15.7209 8.24251C15.8549 8.60619 15.9469 8.73008 15.8969 8.77204Z" fill="#EFBF00"/>
<path d="M16.3713 7.4766C16.2893 7.56652 16.8475 8.22594 17.3716 8.71151C18.1558 9.43487 19.112 9.99637 19.198 9.88847C19.284 9.78056 18.5138 9.01324 17.9617 8.53566C17.3296 7.99015 16.4614 7.37669 16.3713 7.4766Z" fill="#EFBF00"/>
<path d="M11.6592 5.53706C11.7572 5.605 11.3251 6.4043 11.1891 6.65608C10.789 7.39143 10.629 7.50533 10.4229 7.89099C9.78478 9.08993 10.1449 10.2189 9.95081 10.2449C9.79678 10.2649 9.4427 9.55752 9.53872 8.83216C9.57073 8.60036 9.73877 8.28265 10.0688 7.6552C10.2879 7.20377 10.5442 6.77133 10.835 6.36234C11.1271 5.97668 11.5752 5.48111 11.6592 5.53706Z" fill="#EFBF00"/>
<path d="M9.42429 9.83014C9.38228 9.83014 9.32627 10.014 9.36627 10.1838C9.41629 10.4036 9.62033 10.5615 9.66034 10.5355C9.70035 10.5095 9.66034 10.4916 9.54232 10.1239C9.4623 9.8761 9.44629 9.82814 9.42429 9.83014Z" fill="#EFBF00"/>
<path d="M5.82678 9.59375C5.76676 9.59375 5.66274 9.82554 5.65074 10.0653C5.62673 10.5149 5.9368 10.9126 6.00281 10.8886C6.03082 10.8786 6.00281 10.8067 5.9448 10.2991C5.87479 9.74761 5.87279 9.59974 5.82678 9.59375Z" fill="#EFBF00"/>
<path d="M5.94247 7.82875C5.90046 7.81676 5.81244 7.98061 5.76642 8.12249C5.6764 8.39624 5.71041 8.70197 5.76642 8.70997C5.82244 8.71796 5.90846 8.43421 5.94247 8.24038C5.97047 8.08652 5.99248 7.84074 5.94247 7.82875Z" fill="#EFBF00"/>
<path d="M7.53608 5.30055C7.51205 5.27254 7.38189 5.32456 7.29978 5.41657C7.24058 5.49024 7.20367 5.57925 7.19338 5.67316C7.18309 5.76706 7.19986 5.86195 7.24171 5.94666C7.27174 5.94666 7.27575 5.79863 7.41793 5.53459C7.49603 5.39057 7.5561 5.32255 7.53608 5.30055Z" fill="#EFBF00"/>
<path d="M15.4984 7.29842C15.5084 7.31642 15.5966 7.25841 15.6767 7.29842C15.7568 7.33843 15.7688 7.53449 15.7928 7.53449C15.8169 7.53449 15.915 7.18238 15.7928 7.12036C15.6707 7.05834 15.4724 7.26641 15.4984 7.29842Z" fill="#EFBF00"/>
<path d="M16.1992 5.88768C16.1992 5.92569 16.2673 5.94169 16.4335 6.06373C16.5998 6.18577 16.6338 6.26379 16.6699 6.24178C16.7059 6.21977 16.722 5.92569 16.5517 5.82966C16.4115 5.74963 16.2052 5.81966 16.1992 5.88768Z" fill="#EFBF00"/>
<path d="M17.6073 6.41611C17.5853 6.37607 17.4891 6.37007 17.431 6.41611C17.4149 6.43127 17.402 6.44957 17.3932 6.46988C17.3844 6.49019 17.3799 6.51208 17.3799 6.53421C17.3799 6.55634 17.3844 6.57823 17.3932 6.59854C17.402 6.61885 17.4149 6.63715 17.431 6.65231C17.4971 6.67033 17.6454 6.48016 17.6073 6.41611Z" fill="#EFBF00"/>
<path d="M18.4314 6.59281C18.4134 6.62678 18.4114 6.7127 19.7277 7.82972C20.7039 8.65699 21.182 9.01268 21.8481 9.06463C21.9822 9.07462 22.3683 9.1046 22.4383 8.94673C22.5443 8.70695 21.8521 8.1874 21.378 7.82972C21.222 7.71182 20.5358 7.19428 20.4358 7.30019C20.3618 7.37612 20.6459 7.7458 20.6119 7.76977C20.5779 7.79375 20.3038 7.37013 19.9057 7.0644C19.3156 6.6048 18.5174 6.44294 18.4314 6.59281Z" fill="#EFBF00"/>
<path d="M21.1431 6.06278C21.1011 6.12273 21.5932 6.43445 22.2034 7.12185C22.8495 7.8512 23.1176 8.4267 23.3216 8.35876C23.5257 8.29082 23.4937 7.75929 23.5577 7.76928C23.6217 7.77927 23.5577 8.07101 23.7357 8.35876C23.8577 8.55858 23.9718 8.55858 24.0878 8.71045C24.4319 9.14806 24.0198 9.89141 24.1478 9.94736C24.2438 9.98932 24.6179 9.60966 24.6779 9.12409C24.7058 8.8111 24.6222 8.49834 24.4419 8.24086C24.2878 8.00107 24.1278 7.89916 23.6757 7.59343C22.5915 6.86008 22.7695 6.948 22.3794 6.71021C21.9893 6.47242 21.1971 5.98885 21.1431 6.06278Z" fill="#EFBF00"/>
<path d="M3.7072 14.3014C3.65913 14.2414 3.39881 14.3014 3.29467 14.4774C3.19054 14.6534 3.27465 14.9375 3.35275 14.9495C3.3968 14.9495 3.46088 14.8355 3.58905 14.5954C3.71721 14.3554 3.71721 14.3134 3.7072 14.3014Z" fill="#EFBF00"/>
<path d="M18.4388 44.1309C18.4508 44.0809 18.6571 44.0369 18.7933 44.1309C18.9295 44.2249 18.9576 44.461 18.9115 44.485C18.8654 44.509 18.8454 44.435 18.6752 44.309C18.5049 44.1829 18.4328 44.1629 18.4388 44.1309Z" fill="#EFBF00"/>
<path d="M14.7573 2.26948C14.7213 2.22552 14.1892 2.48329 13.7571 2.97486C13.377 3.40648 13.501 3.53237 13.1089 3.91803C12.8629 4.15781 12.6448 4.27371 12.5788 4.56545C12.5428 4.71932 12.5468 4.93712 12.6368 4.97709C12.8249 5.05702 13.307 4.32766 13.343 4.26971C13.557 3.942 13.543 3.84009 13.8151 3.44644C13.9391 3.2646 14.0452 3.13072 14.1692 2.97486C14.5713 2.4733 14.7813 2.29945 14.7573 2.26948Z" fill="#EFBF00"/>
</svg>
